<svg width="259" height="40" viewBox="0 0 259 48" fill="none" xmlns="http://www.w3.org/2000/svg">
<path d="M41.1112 23.9993C42.8398 22.0033 44.0378 20.1029 44.6702 18.3465C45.3794 16.3782 45.3399 14.701 44.5524 13.3611C44.284 12.905 43.9306 12.4982 43.5003 12.1489V12.1437L43.495 12.1407C43.4015 11.6003 43.2198 11.0964 42.9523 10.6396C42.1647 9.29978 40.7053 8.42721 38.6141 8.04653C36.7487 7.7069 34.4735 7.77483 31.8487 8.24732C30.9525 5.77887 29.8754 3.80978 28.6424 2.39306C27.2612 0.804653 25.7622 0 24.1864 0C23.6513 0 23.1161 0.0977825 22.5924 0.288122L22.5871 0.285883L22.5817 0.288122C22.0572 0.0977825 21.5213 0 20.9869 0C19.4111 0 17.9121 0.804653 16.5309 2.39231C15.298 3.80904 14.2208 5.77812 13.3246 8.24657C10.6991 7.77408 8.42393 7.70616 6.55928 8.04578C4.4681 8.42646 3.00861 9.29904 2.2211 10.6389C1.952 11.0964 1.77033 11.6033 1.67759 12.1452C1.24582 12.4953 0.890832 12.9028 0.621739 13.3611C-0.165777 14.701 -0.205305 16.3782 0.503916 18.3465C1.13636 20.1029 2.33436 22.0033 4.06294 23.9993C2.33436 25.9952 1.13636 27.8964 0.503916 29.6527C-0.205305 31.6211 -0.165777 33.299 0.621739 34.6389C0.890072 35.0942 1.24354 35.501 1.67379 35.8511V35.8571L1.67911 35.86C1.77261 36.4005 1.95428 36.9043 2.22186 37.3604C3.00937 38.7002 4.46886 39.5728 6.56004 39.9542C7.33995 40.096 8.19132 40.1677 9.10958 40.1677C10.3882 40.1677 11.7982 40.0281 13.3254 39.7534C14.2216 42.2219 15.2987 44.191 16.5317 45.6077C17.9137 47.1953 19.4127 48 20.9877 48C21.5228 48 22.058 47.9022 22.5825 47.7119L22.5878 47.7141L22.5931 47.7119C23.1169 47.9022 23.6528 48 24.1872 48C25.763 48 27.262 47.1953 28.6432 45.6077C29.8761 44.1917 30.9533 42.2219 31.8495 39.7534C33.3766 40.0281 34.7867 40.1677 36.0653 40.1677C36.9836 40.1677 37.8349 40.0968 38.6148 39.9542C40.706 39.5728 42.1655 38.7002 42.953 37.3611C43.2221 36.9043 43.4038 36.3982 43.4973 35.8556C43.9291 35.5047 44.284 35.0972 44.5531 34.6404C45.3407 33.3005 45.3802 31.6226 44.671 29.6542C44.0385 27.8979 42.8405 25.9967 41.1119 24.0007L41.1112 23.9993ZM43.5596 13.3969C43.6546 13.5186 43.7405 13.6455 43.8181 13.7769C45.1445 16.0341 43.8378 19.6602 40.234 23.7261C39.6023 24.4389 38.9029 25.16 38.1557 25.8691C37.8851 26.1258 37.6084 26.3819 37.3241 26.6371C37.1348 26.8073 36.9425 26.9768 36.7479 27.1455C36.6506 27.2298 36.5526 27.3142 36.453 27.3985C35.464 28.2405 34.4051 29.069 33.2885 29.8737L33.2793 29.8804C33.144 29.9782 33.0072 30.0752 32.8696 30.1722C32.6537 30.3245 32.4348 30.476 32.2151 30.6268C32.0251 30.7567 31.8343 30.8866 31.6412 31.015C31.4755 31.1254 31.3083 31.2359 31.1403 31.3456C30.6986 31.6338 30.2501 31.9174 29.7971 32.1951C29.4011 32.4377 28.9982 32.678 28.5945 32.9124C28.403 33.0236 28.2122 33.1341 28.0206 33.2423C27.4178 33.5842 26.8082 33.9156 26.2077 34.2298C26.0503 34.3119 25.893 34.3933 25.7348 34.4739C24.6303 35.0382 23.516 35.563 22.4153 36.0384C22.191 36.1355 21.9675 36.2295 21.7448 36.3221C21.7266 36.3295 21.7083 36.337 21.6908 36.3445C21.4772 36.4326 21.2644 36.5191 21.0523 36.6042C21.025 36.6154 20.9976 36.6259 20.9702 36.6371C20.7635 36.7192 20.5567 36.7998 20.3499 36.8782C20.318 36.8901 20.2868 36.9021 20.2549 36.914C20.0504 36.9916 19.8467 37.067 19.6438 37.1409C19.6118 37.1529 19.5799 37.1641 19.548 37.176C19.3443 37.2499 19.1405 37.3223 18.9376 37.3925C18.9087 37.4022 18.8798 37.4126 18.8502 37.4223C18.6442 37.4932 18.4382 37.5627 18.2329 37.6298C18.2109 37.6373 18.1888 37.644 18.1668 37.6515C17.9547 37.7209 17.7426 37.7888 17.5313 37.8538C17.5229 37.856 17.5146 37.859 17.507 37.8612C17.2972 37.9262 17.0889 37.9889 16.8814 38.0493C16.8692 38.0531 16.8578 38.056 16.8456 38.0598C16.8396 38.0389 16.8327 38.018 16.8266 37.9978C16.7871 37.8687 16.7476 37.7381 16.7088 37.6067C16.6959 37.5627 16.683 37.5194 16.67 37.4753C16.6252 37.3216 16.5811 37.1663 16.5378 37.0103C16.5325 36.9916 16.5279 36.973 16.5226 36.9543C16.4838 36.8117 16.445 36.6684 16.4078 36.5236C16.3964 36.4803 16.385 36.4363 16.3736 36.393C16.3318 36.231 16.2907 36.0683 16.2512 35.9048C16.2527 35.9048 16.255 35.9033 16.2573 35.9033C16.4534 35.8421 16.651 35.7787 16.8494 35.7137C16.8791 35.704 16.9087 35.6943 16.9384 35.6846C17.1284 35.6219 17.32 35.557 17.5123 35.4913C17.5511 35.4779 17.5898 35.4644 17.6286 35.451C17.8202 35.3846 18.0132 35.3166 18.2063 35.2465C18.239 35.2345 18.2709 35.2226 18.3036 35.2114C18.4473 35.1591 18.5909 35.1061 18.7346 35.0524H18.7354L18.9155 34.9845C20.128 34.5254 21.3609 34.0044 22.5825 33.4356H22.5833L22.7657 33.3505C24.1309 32.7094 25.5022 31.9995 26.8409 31.2404C27.9241 30.6261 28.986 29.9797 30.0084 29.3131V29.3228L30.7389 28.8302L30.9062 28.7174V28.716C31.1441 28.5547 31.3797 28.3927 31.6131 28.2285C32.2197 27.8031 32.8111 27.3694 33.3842 26.932V26.9432L34.1056 26.3707C34.1056 26.3707 34.1071 26.3699 34.1079 26.3692L34.2561 26.2512C34.3124 26.2057 34.3686 26.1609 34.4241 26.1161C34.6066 25.9691 34.7867 25.8213 34.9654 25.6728C35.5104 25.2197 36.0379 24.7614 36.5404 24.3023C36.5404 24.3023 36.5412 24.3023 36.5419 24.3016L36.8749 23.9978L36.8733 23.9963C36.8954 23.9754 36.9182 23.9545 36.9402 23.9336C37.1903 23.6992 37.4358 23.4633 37.6745 23.2282C37.6814 23.2215 37.6882 23.2148 37.6951 23.208C38.066 22.8415 38.4218 22.475 38.7608 22.11L39.0375 21.8115L39.036 21.81C39.0489 21.7958 39.0618 21.7816 39.0747 21.7682C39.0755 21.7674 39.0763 21.7659 39.077 21.7652C39.0892 21.7517 39.1013 21.7376 39.1135 21.7241C39.115 21.7226 39.1165 21.7211 39.1181 21.7189C39.207 21.6204 39.2952 21.5218 39.3811 21.4233C39.3879 21.4151 39.3948 21.4076 39.4016 21.3994C40.7531 19.8566 41.7961 18.3547 42.5061 16.9276C43.1408 15.6519 43.492 14.4688 43.5573 13.3955L43.5596 13.3969ZM27.4262 34.5277C27.4414 34.5195 27.4566 34.5112 27.471 34.503C27.579 34.4441 27.6877 34.3843 27.7956 34.3254C27.8503 34.2955 27.9051 34.2657 27.959 34.2351C28.121 34.1455 28.2821 34.0552 28.4433 33.9634C28.6037 33.8723 28.7633 33.7805 28.9237 33.6879C28.9746 33.6581 29.0255 33.6282 29.0765 33.5984C29.1852 33.5349 29.2939 33.4715 29.4026 33.4073C29.4178 33.3983 29.4337 33.3894 29.4489 33.3797C29.4444 33.4058 29.4391 33.4327 29.4345 33.4588C29.4109 33.5887 29.3866 33.7185 29.3623 33.8469C29.3577 33.8693 29.3539 33.891 29.3494 33.9134C29.3418 33.9522 29.3342 33.9902 29.3266 34.029C29.303 34.1485 29.2794 34.2672 29.2559 34.3851C29.2452 34.4388 29.2338 34.4926 29.2232 34.5456C29.1981 34.668 29.1715 34.7897 29.1456 34.9113C29.1418 34.9278 29.1388 34.9449 29.135 34.9613C29.1274 34.9949 29.1206 35.0285 29.113 35.0621C29.1107 35.0718 29.1084 35.0815 29.1061 35.0912C28.555 34.9188 27.9933 34.7299 27.4247 34.5269L27.4262 34.5277ZM28.9184 35.9056C28.9115 35.9339 28.9047 35.9623 28.8971 35.9907C28.8766 36.0758 28.8553 36.1601 28.834 36.2445C28.8241 36.284 28.8135 36.3236 28.8036 36.3631C28.7831 36.4415 28.7633 36.5199 28.7428 36.5983C28.7321 36.6393 28.7215 36.6796 28.7101 36.7207C28.6896 36.7991 28.6683 36.8767 28.647 36.9543C28.6363 36.9924 28.6265 37.0304 28.6158 37.0685C28.5923 37.1521 28.5694 37.235 28.5451 37.3186C28.536 37.3492 28.5276 37.3805 28.5185 37.4111C28.4554 37.6306 28.3908 37.847 28.3239 38.0613C26.8013 37.6179 25.2309 37.064 23.6383 36.4102C23.6482 36.4057 23.6589 36.4005 23.6688 36.396C23.8839 36.2982 24.099 36.1989 24.3149 36.0982C24.3673 36.0735 24.4198 36.0489 24.4715 36.0243C24.6691 35.931 24.8668 35.8369 25.0644 35.7406C25.0902 35.7279 25.1153 35.716 25.1412 35.704C25.3571 35.5988 25.5729 35.4913 25.7888 35.3831C25.8428 35.3562 25.896 35.3286 25.95 35.3017C26.1119 35.2196 26.273 35.1375 26.4342 35.0539C27.2749 35.3681 28.108 35.6548 28.9176 35.9071L28.9184 35.9056ZM26.4349 12.9461C26.273 12.8618 26.1104 12.7789 25.9477 12.696C25.8952 12.6699 25.8435 12.6431 25.7911 12.6169C25.5737 12.5072 25.3563 12.399 25.1381 12.293C25.1161 12.2825 25.094 12.2721 25.072 12.2609C24.9739 12.2131 24.8751 12.1653 24.7771 12.1183C24.6737 12.069 24.5703 12.0198 24.4669 11.9713C24.4175 11.9481 24.3673 11.9242 24.3179 11.9011C24.1005 11.7988 23.8831 11.6988 23.6657 11.6003C23.6566 11.5966 23.6482 11.5921 23.6391 11.5883C25.2286 10.9352 26.7991 10.3821 28.3247 9.93724C28.3566 10.0402 28.3878 10.1433 28.4189 10.2478C28.4227 10.2604 28.4265 10.2731 28.4303 10.2851C28.46 10.3836 28.4889 10.4829 28.5178 10.5822C28.5292 10.6217 28.5406 10.6613 28.5512 10.7008C28.5725 10.774 28.593 10.8479 28.6135 10.9218C28.6265 10.9673 28.6386 11.0136 28.6515 11.0591C28.6705 11.1285 28.6896 11.198 28.7078 11.2674C28.7207 11.3151 28.7329 11.3622 28.7458 11.4099C28.764 11.4801 28.7823 11.5503 28.8005 11.6204C28.8127 11.6675 28.8249 11.7137 28.8363 11.7608C28.8553 11.8369 28.8743 11.9138 28.8933 11.9907C28.9016 12.0243 28.91 12.0578 28.9184 12.0914C28.1004 12.346 27.2673 12.6326 26.4349 12.9446V12.9461ZM29.1076 12.9073C29.1099 12.917 29.1122 12.9267 29.1145 12.9364C29.1206 12.964 29.1266 12.9916 29.1327 13.0185C29.1388 13.0454 29.1441 13.0722 29.1502 13.0991C29.1753 13.2148 29.2004 13.3313 29.2247 13.4484C29.2361 13.5044 29.2483 13.5604 29.2597 13.6171C29.2832 13.7336 29.3068 13.8508 29.3296 13.968C29.338 14.0098 29.3463 14.0516 29.3539 14.0934C29.357 14.1098 29.36 14.1262 29.3638 14.1434C29.3897 14.2785 29.4147 14.4136 29.4398 14.5494C29.4444 14.5726 29.4482 14.5957 29.4527 14.6189C29.4375 14.6099 29.4231 14.6017 29.4079 14.5927C29.2992 14.5285 29.1905 14.4651 29.0818 14.4016C29.0301 14.371 28.9776 14.3404 28.926 14.3106C28.7891 14.2315 28.6531 14.1531 28.5162 14.0755C28.4934 14.062 28.4699 14.0486 28.4471 14.0359C28.2859 13.9448 28.1248 13.8545 27.9628 13.7642C27.9058 13.7328 27.8488 13.7015 27.7911 13.6701C27.6869 13.6127 27.5828 13.5552 27.4786 13.4985C27.4619 13.4895 27.4452 13.4798 27.4285 13.4708C27.9925 13.2693 28.555 13.0812 29.1099 12.9073H29.1076ZM26.2084 13.7694C26.3977 13.8687 26.5877 13.9695 26.7785 14.0717C27.1936 14.2942 27.6094 14.5233 28.0214 14.7569C28.1635 14.8376 28.3057 14.9189 28.4478 15.001C28.4965 15.0286 28.5444 15.0578 28.593 15.0854C28.6873 15.1399 28.7808 15.1951 28.875 15.2503C28.9305 15.2832 28.986 15.316 29.0415 15.3489C29.1274 15.4004 29.2141 15.4511 29.3 15.5026C29.3585 15.5377 29.417 15.5728 29.4755 15.6086C29.528 15.6407 29.5812 15.6728 29.6337 15.7042C29.6382 15.7333 29.6428 15.7631 29.6473 15.7922C29.677 15.9826 29.7051 16.1744 29.7325 16.3677C29.737 16.3976 29.7408 16.4275 29.7454 16.4573C29.7758 16.6753 29.8047 16.8947 29.8328 17.1149C29.8389 17.1657 29.845 17.2164 29.8518 17.2672C29.8754 17.459 29.8982 17.6523 29.9195 17.8457C29.9233 17.8815 29.9278 17.9181 29.9316 17.9539C29.956 18.1763 29.9788 18.3995 30.0008 18.6235C30.0023 18.6421 30.0046 18.6608 30.0061 18.6794C29.9841 18.6645 29.9613 18.6503 29.9385 18.6361C29.7158 18.4913 29.4915 18.3473 29.265 18.2047C29.23 18.1831 29.1951 18.1607 29.1601 18.139C28.951 18.0077 28.7405 17.8778 28.5292 17.7486C28.4896 17.724 28.4501 17.7001 28.4098 17.6755C28.1803 17.5359 27.9492 17.3978 27.7166 17.2612C27.6664 17.2321 27.617 17.203 27.5668 17.1731C27.4938 17.1306 27.4216 17.0873 27.3479 17.0448C27.1814 16.9477 27.0134 16.8522 26.8462 16.7566C26.679 16.6618 26.511 16.5678 26.343 16.4745C26.0343 16.3035 25.725 16.1356 25.4141 15.9706C24.8766 15.6848 24.3362 15.4071 23.7957 15.1406C23.7873 15.1361 23.779 15.1324 23.7699 15.1279C23.5114 15.0003 23.253 14.8756 22.9945 14.7532C22.92 14.7181 22.8455 14.6823 22.771 14.6472L22.5886 14.5614H22.5878C22.3286 14.4412 22.0686 14.3218 21.8087 14.2053C21.6475 14.1337 21.4871 14.0628 21.326 13.9926C20.5217 13.6425 19.7167 13.3148 18.9209 13.0133C18.9186 13.0133 18.9171 13.0118 18.9148 13.011L18.7399 12.9446H18.7392C18.594 12.8909 18.4488 12.8371 18.3036 12.7849C18.2755 12.7744 18.2474 12.764 18.2192 12.7543C18.0231 12.6834 17.827 12.6139 17.6316 12.546C17.5974 12.5341 17.5632 12.5221 17.529 12.5109C17.3337 12.4438 17.1383 12.3781 16.9445 12.3139C16.9171 12.3049 16.8897 12.296 16.8624 12.287C16.7848 12.2616 16.7065 12.2355 16.629 12.2109C16.5066 12.1713 16.3842 12.1332 16.2626 12.0952C16.2603 12.0952 16.258 12.0937 16.2565 12.0929C16.2968 11.9265 16.3386 11.7615 16.3812 11.598C16.3918 11.5577 16.4017 11.5182 16.4124 11.4779C16.4519 11.3263 16.4922 11.1763 16.5325 11.027C16.5363 11.0143 16.5393 11.0016 16.5431 10.9882C16.5872 10.8285 16.632 10.671 16.6776 10.5135C16.689 10.4747 16.7005 10.4351 16.7119 10.3963C16.7521 10.2582 16.794 10.1216 16.8358 9.98576C16.8411 9.97008 16.8456 9.95366 16.8502 9.93724C16.8593 9.94022 16.8684 9.94246 16.8776 9.94545C17.0896 10.0074 17.3033 10.0716 17.5169 10.138C17.5222 10.1395 17.5275 10.141 17.5328 10.1425C17.7449 10.2082 17.9577 10.2761 18.1721 10.3463C18.1926 10.353 18.2139 10.3597 18.2344 10.3664C18.4397 10.4336 18.6457 10.5038 18.8524 10.5747C18.8813 10.5844 18.9102 10.5941 18.9383 10.6045C19.1413 10.6747 19.345 10.7471 19.5487 10.821C19.5807 10.8322 19.6126 10.8442 19.6445 10.8553C19.8482 10.9292 20.052 11.0054 20.2564 11.083C20.2876 11.095 20.3188 11.1069 20.3507 11.1188C20.5575 11.198 20.7642 11.2786 20.9717 11.3607C20.9991 11.3711 21.0257 11.3823 21.0531 11.3935C21.2659 11.4786 21.4795 11.5652 21.6939 11.654C21.7114 11.6615 21.7281 11.6682 21.7456 11.6757C21.9698 11.769 22.1941 11.8638 22.4191 11.9608C23.6741 12.5012 24.9496 13.1096 26.2107 13.7687L26.2084 13.7694ZM16.664 13.1006C16.6784 13.1051 16.6928 13.1103 16.7073 13.1148C16.8951 13.1767 17.0843 13.2409 17.2736 13.3066C17.3086 13.3186 17.3435 13.3305 17.3785 13.3432C17.5009 13.3857 17.6233 13.4298 17.7457 13.4731C17.4059 13.6575 17.0653 13.8456 16.7278 14.0366C16.388 14.2292 16.0528 14.424 15.7229 14.6196C15.7457 14.4935 15.7677 14.3673 15.7921 14.2419C15.7989 14.2076 15.805 14.1732 15.8118 14.1382C15.8491 13.9441 15.8871 13.7515 15.9259 13.5604C15.9297 13.5432 15.9327 13.5268 15.9365 13.5097C15.9745 13.3268 16.0133 13.1454 16.0528 12.9655C16.0574 12.9461 16.0612 12.9274 16.0657 12.908C16.0794 12.9125 16.0931 12.917 16.1068 12.9207C16.2923 12.9789 16.4777 13.0387 16.6647 13.0999L16.664 13.1006ZM17.152 14.7569C17.6962 14.4487 18.2474 14.1471 18.7931 13.8597C18.8456 13.8799 18.898 13.9 18.9505 13.9202C19.0197 13.9471 19.0896 13.9739 19.1588 14.0016C19.2439 14.0351 19.3291 14.0687 19.415 14.1031C19.4834 14.1307 19.5518 14.1576 19.621 14.1852C19.7076 14.2203 19.795 14.2561 19.8817 14.2912C19.9493 14.3188 20.0162 14.3464 20.0839 14.374C20.1728 14.4106 20.2618 14.4479 20.3507 14.486C20.4161 14.5136 20.4822 14.5412 20.5476 14.5688C20.6388 14.6077 20.73 14.6472 20.8212 14.6868C20.8851 14.7144 20.9482 14.7413 21.012 14.7689C21.107 14.8099 21.2013 14.8525 21.2963 14.8943C21.3564 14.9212 21.4164 14.9473 21.4765 14.9742C21.519 14.9928 21.5616 15.013 21.6042 15.0316C20.5042 15.5683 19.4058 16.1468 18.3279 16.7581C17.2493 17.3695 16.1904 18.0144 15.168 18.6809C15.1725 18.6369 15.1763 18.5921 15.1801 18.5481C15.187 18.4749 15.1954 18.4025 15.2022 18.3301C15.2113 18.2376 15.2212 18.1442 15.2311 18.0517C15.2394 17.9756 15.2478 17.9002 15.2562 17.8248C15.266 17.736 15.2759 17.6471 15.2866 17.5583C15.2957 17.4814 15.3048 17.4045 15.3147 17.3277C15.3253 17.2403 15.336 17.153 15.3474 17.0657C15.3573 16.9903 15.3671 16.9141 15.377 16.8387C15.3884 16.7507 15.4006 16.6626 15.412 16.5752C15.4219 16.5014 15.4325 16.4282 15.4432 16.3543C15.4561 16.2647 15.4682 16.1759 15.4819 16.0871C15.4926 16.0169 15.5032 15.9468 15.5139 15.8766C15.5222 15.8191 15.5313 15.7624 15.5405 15.7057C16.0604 15.3884 16.6016 15.0704 17.152 14.7584V14.7569ZM18.7521 17.4784C20.0124 16.7641 21.3009 16.0938 22.5855 15.4847C22.6426 15.5116 22.6996 15.5392 22.7573 15.5661C22.8333 15.6026 22.9094 15.6392 22.9861 15.6758C23.0758 15.7191 23.1655 15.7631 23.256 15.8072C23.3305 15.8437 23.405 15.8803 23.4795 15.9169C23.5715 15.9624 23.6634 16.0087 23.7554 16.0542C23.8276 16.0908 23.9006 16.1266 23.9728 16.1632C24.0671 16.211 24.1606 16.2595 24.2548 16.3073C24.3255 16.3431 24.3955 16.3797 24.4662 16.4155C24.5627 16.4655 24.6585 16.5163 24.755 16.567C24.8227 16.6029 24.8903 16.638 24.958 16.6738C25.0583 16.7268 25.1579 16.7805 25.2582 16.835C25.3213 16.8693 25.3852 16.9029 25.4483 16.9373C25.5592 16.9977 25.6702 17.0589 25.7812 17.1194C25.8329 17.1478 25.8846 17.1761 25.9363 17.2045C26.099 17.2948 26.2609 17.3851 26.422 17.4769C26.5839 17.5687 26.7458 17.6613 26.907 17.7554C26.9549 17.783 27.002 17.8113 27.0491 17.839C27.1624 17.9046 27.2757 17.9711 27.3874 18.0375C27.4467 18.0726 27.506 18.1084 27.566 18.1442C27.6656 18.204 27.7652 18.2629 27.8648 18.3234C27.9302 18.363 27.9955 18.4033 28.0617 18.4436C28.1536 18.4995 28.2456 18.5555 28.3376 18.6123C28.4075 18.6556 28.4767 18.6988 28.5466 18.7421C28.6333 18.7959 28.72 18.8496 28.8059 18.9041C28.8781 18.9496 28.9503 18.9959 29.0225 19.0415C29.1046 19.0937 29.1867 19.146 29.2688 19.199C29.3433 19.2467 29.417 19.2952 29.4915 19.343C29.5698 19.3938 29.6481 19.4445 29.7264 19.496C29.8024 19.546 29.8777 19.5961 29.9529 19.6461C30.0016 19.6782 30.0502 19.711 30.0989 19.7431C30.1034 19.8006 30.1072 19.8581 30.1118 19.9148C30.1179 20.0036 30.1247 20.0932 30.1308 20.1828C30.1369 20.2731 30.143 20.3641 30.1483 20.4552C30.1536 20.5433 30.1597 20.6321 30.1642 20.7209C30.1696 20.8135 30.1741 20.9068 30.1794 21.0001C30.184 21.0874 30.1886 21.1748 30.1931 21.2621C30.1977 21.3576 30.2015 21.4539 30.2061 21.5495C30.2099 21.6346 30.2137 21.7197 30.2167 21.8055C30.2205 21.9055 30.2235 22.0063 30.2273 22.1071C30.2304 22.1884 30.2327 22.2698 30.2357 22.3511C30.2387 22.4579 30.241 22.5646 30.2433 22.6714C30.2448 22.7475 30.2471 22.8229 30.2486 22.899C30.2509 23.0199 30.2524 23.1416 30.2539 23.2633C30.2547 23.3252 30.2562 23.3864 30.2562 23.4484C30.2577 23.632 30.2593 23.8156 30.2593 24C30.2593 24.1844 30.2585 24.368 30.2562 24.5516C30.2562 24.6136 30.2547 24.6755 30.2539 24.7375C30.2524 24.8584 30.2509 24.9801 30.2486 25.101C30.2471 25.1771 30.2448 25.2533 30.2433 25.3294C30.241 25.4361 30.2387 25.5429 30.2357 25.6496C30.2334 25.7317 30.2304 25.8131 30.2273 25.8944C30.2243 25.9945 30.2205 26.0952 30.2167 26.1953C30.2137 26.2811 30.2099 26.3662 30.2061 26.4513C30.2023 26.5468 30.1977 26.6431 30.1931 26.7387C30.1893 26.826 30.184 26.9133 30.1794 27.0007C30.1749 27.094 30.1696 27.1873 30.1642 27.2798C30.1589 27.3679 30.1536 27.456 30.1483 27.5441C30.1422 27.6351 30.1369 27.7269 30.1308 27.818C30.1247 27.9068 30.1186 27.9956 30.1118 28.0837C30.108 28.1412 30.1034 28.1994 30.0989 28.2569C30.0472 28.2912 29.9947 28.3263 29.943 28.3607C29.8723 28.4077 29.8024 28.454 29.7317 28.501C29.6496 28.5547 29.5675 28.6085 29.4854 28.6615C29.4147 28.7077 29.344 28.7533 29.2733 28.7988C29.1897 28.8525 29.1054 28.9063 29.021 28.96C28.9503 29.0048 28.8796 29.0504 28.8089 29.0944C28.723 29.1489 28.6363 29.2026 28.5504 29.2564C28.4805 29.2997 28.4106 29.3437 28.3399 29.387C28.2509 29.4415 28.162 29.496 28.0723 29.5505C28.0039 29.5923 27.9355 29.6341 27.8663 29.6759C27.7728 29.7326 27.6778 29.7886 27.5835 29.8453C27.5189 29.8841 27.4543 29.9229 27.3889 29.961C27.2825 30.0237 27.1761 30.0857 27.0697 30.1484C27.0157 30.1797 26.9625 30.2118 26.9085 30.2424C26.7474 30.3357 26.5862 30.4283 26.4243 30.5201C26.2624 30.6119 26.1005 30.703 25.9378 30.7925C25.8884 30.8201 25.839 30.847 25.7888 30.8739C25.6756 30.9358 25.5623 30.9985 25.449 31.0597C25.3882 31.0926 25.3274 31.1254 25.2658 31.1583C25.1632 31.2135 25.0614 31.2687 24.9587 31.3232C24.8918 31.3591 24.8249 31.3934 24.7581 31.4292C24.6615 31.48 24.565 31.5307 24.4684 31.5808C24.397 31.6181 24.3255 31.6547 24.2541 31.6912C24.1613 31.739 24.0694 31.786 23.9766 31.833C23.9021 31.8711 23.8276 31.9084 23.7524 31.9458C23.6984 31.9726 23.6444 31.9995 23.5905 32.0264C23.5547 32.0443 23.519 32.0622 23.484 32.0794C23.408 32.1174 23.3312 32.154 23.2552 32.1921C23.1671 32.2354 23.0781 32.2787 22.9899 32.3212C22.9132 32.3585 22.8372 32.3944 22.7604 32.4309C22.7034 32.4586 22.6464 32.4854 22.5886 32.5123C21.3039 31.9032 20.0147 31.2329 18.7551 30.5186C17.4933 29.8035 16.2588 29.0421 15.0813 28.2554C15.0768 28.1912 15.0714 28.127 15.0669 28.0636C15.0608 27.9844 15.0555 27.9046 15.0502 27.8247C15.0433 27.7239 15.0372 27.6232 15.0312 27.5224C15.0266 27.4433 15.0213 27.3642 15.0167 27.285C15.0106 27.1828 15.0053 27.0805 15 26.9783C14.9962 26.8999 14.9916 26.8208 14.9878 26.7424C14.9825 26.6386 14.9787 26.5341 14.9741 26.4296C14.9711 26.352 14.9673 26.2744 14.9643 26.1967C14.9605 26.0893 14.9567 25.9825 14.9529 25.875C14.9506 25.7996 14.9475 25.725 14.9453 25.6496C14.9422 25.5376 14.9399 25.4249 14.9369 25.313C14.9354 25.2421 14.9331 25.1711 14.9316 25.1002C14.9293 24.9763 14.9278 24.8532 14.9263 24.7293C14.9263 24.6695 14.924 24.6098 14.924 24.5494C14.9225 24.3658 14.9209 24.1821 14.9209 23.9978C14.9209 23.8134 14.9217 23.6298 14.924 23.4461C14.924 23.3864 14.9255 23.3267 14.9263 23.267C14.9278 23.1431 14.9293 23.0192 14.9316 22.8953C14.9331 22.8251 14.9346 22.7542 14.9361 22.684C14.9384 22.5713 14.9415 22.4579 14.9445 22.3452C14.9468 22.2713 14.9491 22.1974 14.9521 22.1235C14.9559 22.0145 14.9589 21.9055 14.9635 21.7973C14.9665 21.7211 14.9696 21.6458 14.9734 21.5696C14.9779 21.4636 14.9825 21.3569 14.9878 21.2509C14.9916 21.1748 14.9954 21.0986 15 21.0217C15.0053 20.9165 15.0106 20.8112 15.0167 20.7067C15.0213 20.6306 15.0258 20.5545 15.0304 20.4783C15.0372 20.3738 15.0433 20.2701 15.0502 20.1663C15.0555 20.0902 15.0608 20.0148 15.0661 19.9387C15.0707 19.8722 15.076 19.8058 15.0813 19.7394C16.2596 18.9519 17.494 18.1913 18.7551 17.4762L18.7521 17.4784ZM18.3287 31.2419C19.4066 31.8532 20.505 32.4317 21.6049 32.9684C21.5624 32.9878 21.519 33.0072 21.4765 33.0266C21.4187 33.052 21.3617 33.0773 21.3039 33.1027C21.2066 33.146 21.1093 33.1893 21.0128 33.2311C20.9497 33.2587 20.8874 33.2856 20.8243 33.3125C20.7323 33.352 20.6403 33.3916 20.5483 33.4312C20.4822 33.4588 20.4168 33.4864 20.3507 33.514C20.2618 33.5513 20.1736 33.5887 20.0846 33.6252C20.017 33.6536 19.9486 33.6812 19.8809 33.7088C19.7943 33.7439 19.7084 33.7797 19.6217 33.8141C19.5525 33.8417 19.4834 33.8693 19.4142 33.8969C19.3298 33.9305 19.2447 33.9641 19.1603 33.9977C19.0896 34.0253 19.0189 34.0529 18.949 34.0798C18.8973 34.1 18.8456 34.1194 18.7939 34.1395C18.2489 33.8529 17.6978 33.5513 17.1527 33.2423C16.6024 32.9303 16.0612 32.6123 15.5412 32.2951C15.5329 32.2413 15.5245 32.1869 15.5161 32.1324C15.5047 32.0577 15.4933 31.9838 15.4827 31.9084C15.4698 31.8226 15.4576 31.7368 15.4454 31.6509C15.4348 31.5748 15.4234 31.4979 15.4135 31.4218C15.4021 31.3367 15.3907 31.2508 15.3793 31.165C15.3694 31.0874 15.3588 31.0105 15.3489 30.9329C15.3383 30.847 15.3276 30.7604 15.317 30.6746C15.3079 30.597 15.298 30.5193 15.2889 30.441C15.2782 30.3536 15.2691 30.2655 15.2592 30.1775C15.2508 30.1006 15.2417 30.0237 15.2334 29.9468C15.2235 29.855 15.2144 29.7632 15.2052 29.6714C15.1976 29.5982 15.19 29.5243 15.1824 29.4512C15.1779 29.4071 15.1741 29.3624 15.1703 29.3183C16.1919 29.9841 17.2516 30.6291 18.3302 31.2411L18.3287 31.2419ZM16.7286 33.9641C17.0661 34.1552 17.4066 34.3433 17.7457 34.5277C17.6218 34.5717 17.4986 34.6165 17.3755 34.659C17.339 34.6717 17.3033 34.6837 17.2668 34.6964C17.079 34.7613 16.8912 34.8247 16.705 34.886C16.689 34.8912 16.6723 34.8964 16.6564 34.9016C16.4754 34.9613 16.2961 35.0188 16.1182 35.0748C16.1007 35.08 16.0832 35.086 16.0657 35.0912C16.0612 35.0718 16.0574 35.0532 16.0528 35.0337C16.0133 34.8553 15.9753 34.6755 15.9373 34.4941C15.9335 34.4754 15.9297 34.4568 15.9251 34.4373C15.8863 34.247 15.8483 34.0559 15.8118 33.8633C15.805 33.8275 15.7982 33.7924 15.7913 33.7566C15.7677 33.6319 15.7457 33.5058 15.7229 33.3804C16.0528 33.576 16.3888 33.7708 16.7286 33.9634V33.9641ZM34.3002 23.4521C34.3002 23.3932 34.2987 23.3334 34.2979 23.2745C34.2964 23.1498 34.2949 23.0252 34.2926 22.9013C34.2926 22.8848 34.2926 22.8684 34.2926 22.8527C34.7525 23.2327 35.2002 23.6156 35.6305 24C35.6221 24.0075 35.6145 24.0142 35.6062 24.0216C35.5856 24.0403 35.5651 24.0582 35.5438 24.0769C35.5241 24.0941 35.5043 24.112 35.4845 24.1291C35.3941 24.2097 35.3029 24.2896 35.2101 24.3695C35.166 24.4076 35.122 24.4456 35.0779 24.4837C34.9882 24.5613 34.8977 24.6382 34.8072 24.7151C34.773 24.7442 34.7388 24.7733 34.7046 24.8017C34.6909 24.8129 34.6773 24.8248 34.6636 24.836C34.5594 24.9233 34.4553 25.0107 34.3504 25.098C34.3306 25.1144 34.3109 25.1308 34.2911 25.1473C34.2911 25.1308 34.2911 25.1152 34.2911 25.0987C34.2934 24.9748 34.2949 24.8509 34.2964 24.7263C34.2964 24.6666 34.2979 24.6076 34.2987 24.5479C34.3002 24.365 34.301 24.1821 34.301 23.9993C34.301 23.8164 34.3002 23.6335 34.2987 23.4506L34.3002 23.4521ZM34.2592 21.7473C34.2523 21.5681 34.2447 21.389 34.2356 21.2098C34.2326 21.1516 34.2303 21.0926 34.2273 21.0344C34.2151 20.7956 34.2014 20.5575 34.1862 20.3201C34.1847 20.294 34.1824 20.2678 34.1809 20.2417C34.1664 20.023 34.1512 19.8058 34.1345 19.5886C34.13 19.5334 34.1262 19.4781 34.1216 19.4229C34.1026 19.1878 34.0828 18.9534 34.0608 18.7197C34.06 18.71 34.0593 18.6996 34.0585 18.6899C35.4291 19.7155 36.7031 20.7747 37.8577 21.8488C37.7832 21.9272 37.7087 22.0048 37.6327 22.0832C37.6221 22.0936 37.6122 22.1041 37.6016 22.1153C37.5301 22.1884 37.4587 22.2616 37.3857 22.3355C37.3576 22.3638 37.3294 22.3922 37.3013 22.4198C37.2458 22.4758 37.1896 22.5318 37.1333 22.5878C37.1006 22.6198 37.0687 22.6519 37.036 22.684C36.9828 22.737 36.9288 22.7893 36.8749 22.8423C36.8414 22.8751 36.8072 22.908 36.7738 22.9408C36.719 22.9938 36.6635 23.0468 36.608 23.0998C36.5754 23.1312 36.5419 23.1625 36.5085 23.1946C36.4477 23.2521 36.3868 23.3088 36.326 23.3663C36.3025 23.3887 36.2781 23.4111 36.2546 23.4335C35.6221 22.8669 34.9532 22.3019 34.2607 21.748L34.2592 21.7473ZM42.706 12.6236C42.709 12.6595 42.7113 12.696 42.7136 12.7319C42.7159 12.7714 42.7189 12.811 42.7204 12.8506C42.7219 12.8871 42.7219 12.9252 42.7227 12.9625C42.7227 13.0028 42.7242 13.0424 42.7235 13.0827C42.7235 13.1208 42.7219 13.1588 42.7204 13.1969C42.7189 13.2372 42.7181 13.2783 42.7159 13.3186C42.7136 13.3574 42.7105 13.3969 42.7083 13.4365C42.7052 13.4776 42.7022 13.5186 42.6984 13.5597C42.6946 13.6 42.69 13.6403 42.6847 13.6806C42.6801 13.7224 42.6748 13.7634 42.6687 13.8052C42.6634 13.8463 42.6566 13.8874 42.6497 13.9284C42.6429 13.9702 42.636 14.0128 42.6284 14.0546C42.6208 14.0964 42.6125 14.1382 42.6041 14.1807C42.5958 14.2232 42.5874 14.2658 42.5775 14.3083C42.5684 14.3509 42.5585 14.3934 42.5479 14.4367C42.538 14.48 42.5273 14.5233 42.5159 14.5666C42.5045 14.6099 42.4931 14.6532 42.481 14.6972C42.4688 14.7413 42.4566 14.7846 42.4437 14.8286C42.4308 14.8726 42.4171 14.9167 42.4034 14.9615C42.3897 15.0055 42.3761 15.0503 42.3609 15.0943C42.3464 15.1391 42.3312 15.1839 42.3153 15.2294C42.3001 15.2742 42.2841 15.319 42.2681 15.3638C42.2514 15.4093 42.2347 15.4549 42.2172 15.5011C42.1997 15.5467 42.1822 15.5922 42.1647 15.6377C42.1465 15.684 42.1283 15.7303 42.1093 15.7766C42.0902 15.8221 42.0712 15.8684 42.0515 15.9147C42.0317 15.9617 42.0112 16.008 41.9907 16.055C41.9793 16.0811 41.9671 16.108 41.9549 16.1341C41.9458 16.1543 41.9367 16.1744 41.9276 16.1946C41.9063 16.2416 41.8842 16.2894 41.8614 16.3371C41.8394 16.3842 41.8158 16.4319 41.793 16.479C41.7695 16.5267 41.7459 16.5745 41.7223 16.6223C41.698 16.67 41.6737 16.7178 41.6486 16.7663C41.6235 16.8141 41.5984 16.8626 41.5726 16.9111C41.5467 16.9597 41.5201 17.0089 41.4928 17.0574C41.4662 17.106 41.4396 17.1537 41.413 17.2023C41.3848 17.2515 41.3567 17.3015 41.3278 17.3515C41.2997 17.4001 41.2716 17.4486 41.2434 17.4971C41.2138 17.5471 41.1834 17.5979 41.153 17.6479C41.1233 17.6964 41.0937 17.7457 41.0633 17.7942C41.0321 17.8449 40.9994 17.8964 40.9667 17.9472C40.9356 17.9965 40.9052 18.045 40.8732 18.0942C40.8398 18.1457 40.8056 18.198 40.7706 18.2502C40.7379 18.2995 40.706 18.348 40.6733 18.3973C40.6376 18.4503 40.6011 18.5033 40.5646 18.5563C40.5312 18.6048 40.4977 18.6533 40.4635 18.7026C40.4255 18.7563 40.3868 18.8108 40.348 18.8646C40.313 18.9131 40.2788 18.9616 40.2438 19.0101C40.2036 19.0653 40.1625 19.1206 40.1215 19.1758C40.0857 19.2243 40.0508 19.2721 40.0143 19.3206C39.9717 19.3774 39.9276 19.4341 39.8843 19.4908C39.8478 19.5386 39.8121 19.5856 39.7748 19.6334C39.73 19.6916 39.6836 19.7498 39.6372 19.808C39.6 19.8551 39.5635 19.9013 39.5255 19.9484C39.4776 20.0081 39.4282 20.0678 39.3788 20.1275C39.3415 20.173 39.3043 20.2193 39.2663 20.2649C39.2146 20.3276 39.1614 20.3903 39.1082 20.4522C39.0717 20.4955 39.0352 20.5395 38.998 20.5828C38.9402 20.65 38.8817 20.7179 38.8224 20.7851C38.7882 20.8247 38.7547 20.8635 38.7197 20.9031C38.6498 20.9822 38.5784 21.062 38.5069 21.1412C38.4818 21.1688 38.4575 21.1972 38.4324 21.2248C38.4301 21.2278 38.4271 21.23 38.4248 21.233C37.0748 19.9782 35.5674 18.7451 33.9361 17.5613C33.9125 17.3575 33.889 17.1537 33.8631 16.9522C33.8517 16.8634 33.8396 16.776 33.8274 16.6872C33.8046 16.514 33.7818 16.3409 33.7567 16.1692C33.7415 16.0639 33.7256 15.9602 33.7096 15.8564C33.6868 15.7027 33.6632 15.5489 33.6389 15.3959C33.6214 15.2854 33.6024 15.1764 33.5842 15.0667C33.5598 14.9212 33.5355 14.7764 33.5104 14.6323C33.4907 14.5203 33.4701 14.4091 33.4496 14.2979C33.4238 14.1576 33.3979 14.0172 33.3706 13.8784C33.3493 13.7664 33.3265 13.656 33.3044 13.5447C33.2771 13.4074 33.2489 13.2708 33.2201 13.1349C33.1965 13.0245 33.1729 12.9148 33.1486 12.805C33.119 12.6707 33.0885 12.5363 33.0581 12.4027C33.0331 12.2945 33.008 12.187 32.9829 12.0795C32.9692 12.0228 32.9563 11.9645 32.9426 11.9086C37.3454 11.0196 40.7881 11.2607 42.6984 12.593C42.6991 12.6027 42.7007 12.6117 42.7014 12.6214L42.706 12.6236ZM42.2195 11.0561C42.297 11.1883 42.3654 11.3263 42.4247 11.4689C40.2423 10.3993 36.8718 10.2657 32.7404 11.1032C32.7336 11.077 32.7267 11.0517 32.7191 11.0263C32.6978 10.9472 32.6765 10.8673 32.6545 10.7889C32.6423 10.7456 32.6302 10.7023 32.618 10.659C32.5975 10.5851 32.577 10.512 32.5557 10.4388C32.5435 10.3955 32.5306 10.3523 32.5184 10.309C32.4964 10.2328 32.4743 10.1574 32.4515 10.0813C32.4401 10.0432 32.4287 10.0052 32.4181 9.96784C32.3862 9.86259 32.3542 9.75809 32.3223 9.65434C32.32 9.64762 32.3178 9.64016 32.3162 9.63344C32.282 9.52371 32.2471 9.41474 32.2121 9.3065C32.2007 9.27067 32.1893 9.23559 32.1771 9.20051C32.1604 9.14826 32.1429 9.09601 32.1262 9.04451C37.2663 8.14207 40.931 8.86835 42.2187 11.0576L42.2195 11.0561ZM24.1864 0.832271C26.8401 0.832271 29.3859 3.75679 31.1692 8.85641C31.4785 9.73943 31.7644 10.6941 32.0198 11.6928C32.1414 12.1721 32.2562 12.6602 32.3634 13.1566C32.6841 14.6472 32.9373 16.2147 33.1182 17.8352C33.2497 19.0079 33.3432 20.2178 33.3987 21.4405C33.4063 21.6152 33.4139 21.7898 33.42 21.9652C33.4435 22.6325 33.4557 23.317 33.4557 24C33.4557 24.1627 33.4549 24.3262 33.4534 24.4889C33.4534 24.5449 33.4519 24.6001 33.4511 24.6561C33.4496 24.7629 33.4489 24.8696 33.4466 24.9763C33.4458 25.0428 33.4443 25.1084 33.4428 25.1749C33.4405 25.2704 33.439 25.3667 33.4367 25.4623C33.4352 25.5317 33.4329 25.6003 33.4306 25.669C33.4291 25.728 33.4268 25.7862 33.4253 25.8444C33.3994 25.8646 33.3736 25.8847 33.3478 25.9049C33.1995 26.0213 33.0498 26.137 32.8985 26.2527C32.8704 26.2744 32.843 26.296 32.8149 26.3169C32.6401 26.4498 32.4637 26.5827 32.2851 26.7148C32.241 26.7476 32.1961 26.7805 32.1513 26.8133C31.9977 26.926 31.8434 27.0387 31.6883 27.1507C31.6549 27.1746 31.6215 27.1992 31.588 27.2231C31.4063 27.3537 31.2224 27.4828 31.0384 27.612C31.0217 27.6239 31.005 27.6351 30.9882 27.6471C30.9898 27.6202 30.9913 27.5926 30.9928 27.5657C31.0088 27.3052 31.024 27.0432 31.0361 26.7805C31.0384 26.7401 31.0399 26.6991 31.0415 26.658C31.0529 26.414 31.062 26.1699 31.0703 25.9243C31.0719 25.8795 31.0734 25.834 31.0749 25.7892C31.0833 25.5242 31.0893 25.2577 31.0939 24.9913C31.0947 24.9338 31.0954 24.8771 31.0962 24.8196C31.1 24.5464 31.1023 24.2724 31.1023 23.9985C31.1023 23.6171 31.0985 23.2364 31.0909 22.8557C31.0741 22.01 31.0392 21.1695 30.986 20.3402L30.9936 20.3455L30.9252 19.4781C30.9252 19.4736 30.9252 19.4699 30.9244 19.4654L30.9092 19.2796H30.9084C30.8849 18.9967 30.8598 18.7153 30.8324 18.4354C30.7602 17.7068 30.6743 16.9865 30.574 16.2789L30.5838 16.2849L30.4402 15.3854C30.4402 15.3854 30.4387 15.378 30.4387 15.3742L30.4105 15.1973H30.4098C30.3763 14.9943 30.3429 14.792 30.3072 14.5912C30.1673 13.8015 30.0092 13.0275 29.8343 12.2803L29.7325 11.8444H29.7302C29.5136 10.9621 29.2726 10.1074 29.0103 9.29755L28.8857 8.91239H28.8834C28.8796 8.90268 28.8765 8.89298 28.8727 8.88253C28.8575 8.83774 28.8423 8.79371 28.8271 8.74967C28.7952 8.65785 28.764 8.56604 28.7321 8.47573C28.7139 8.42422 28.6949 8.37272 28.6766 8.32121C28.647 8.23836 28.6166 8.15625 28.5869 8.07415C28.5672 8.0219 28.5482 7.96965 28.5284 7.91739C28.498 7.83753 28.4676 7.75766 28.4372 7.67854C28.4174 7.62778 28.3977 7.57702 28.3779 7.52627C28.346 7.4449 28.3133 7.36429 28.2806 7.28368C28.2623 7.23814 28.2433 7.19186 28.2251 7.14633C28.1871 7.05377 28.1483 6.96196 28.1096 6.8709C28.0959 6.83955 28.083 6.80745 28.07 6.7761C28.0176 6.65443 27.9644 6.53351 27.9112 6.41408C27.9005 6.3902 27.8891 6.36631 27.8785 6.34243C27.8359 6.24838 27.7926 6.15507 27.7492 6.06251C27.7302 6.02221 27.7112 5.98265 27.6922 5.94308C27.6565 5.8677 27.62 5.79231 27.5835 5.71841C27.5622 5.67512 27.541 5.63257 27.5197 5.59002C27.4847 5.51986 27.4497 5.45044 27.414 5.38177C27.392 5.33922 27.3699 5.29668 27.3479 5.25413C27.3122 5.18546 27.2757 5.11753 27.2392 5.05035C27.2179 5.01079 27.1966 4.97048 27.1746 4.93092C27.135 4.85852 27.0955 4.78761 27.0552 4.71744C27.037 4.6846 27.018 4.65101 26.9997 4.61892C26.9458 4.52487 26.891 4.43156 26.8363 4.33975C26.8317 4.33229 26.8272 4.32408 26.8226 4.31586C26.7626 4.21584 26.7018 4.11731 26.6409 4.02028C26.6242 3.99415 26.6075 3.96877 26.5915 3.94265C26.5474 3.87323 26.5026 3.80456 26.4577 3.73663C26.4357 3.70379 26.4137 3.67095 26.3916 3.63885C26.3513 3.57914 26.311 3.52017 26.2708 3.46195C26.2472 3.42761 26.2236 3.39402 26.2001 3.36118C26.1605 3.3052 26.1202 3.24921 26.0807 3.19473C26.0571 3.16188 26.0328 3.12979 26.0093 3.09769C25.9675 3.04171 25.9264 2.98722 25.8846 2.93273C25.8618 2.90362 25.8397 2.87451 25.8169 2.8454C25.7698 2.78493 25.7219 2.72522 25.674 2.667C25.6573 2.6461 25.6406 2.6252 25.6231 2.6043C25.5577 2.52518 25.4916 2.44755 25.4255 2.37141C25.4186 2.36395 25.4118 2.35648 25.4049 2.34827C25.3456 2.28109 25.2864 2.21541 25.2271 2.15121C25.2058 2.12808 25.1845 2.10643 25.1632 2.08404C25.1176 2.03552 25.072 1.98775 25.0264 1.94147C25.0013 1.91609 24.977 1.89146 24.9519 1.86682C24.9093 1.82428 24.866 1.78173 24.8227 1.74068C24.7968 1.71605 24.7702 1.69067 24.7444 1.66678C24.701 1.62647 24.6585 1.58691 24.6151 1.54884C24.5893 1.52571 24.5635 1.50257 24.5376 1.48017C24.492 1.43987 24.4456 1.40105 24.3993 1.36298C24.3757 1.34358 24.3529 1.32342 24.3293 1.30476C24.2723 1.25848 24.2145 1.2137 24.1575 1.16891C24.1454 1.15921 24.1324 1.1495 24.1203 1.1398C24.0503 1.0868 23.9797 1.0353 23.909 0.986036C23.8907 0.973346 23.8717 0.960657 23.8527 0.947968C23.8094 0.918857 23.7668 0.888999 23.7235 0.860635C23.8786 0.840481 24.0344 0.830778 24.1895 0.830778L24.1864 0.832271ZM21.5479 1.81532C21.5844 1.7877 21.6209 1.76083 21.6574 1.73471C21.6878 1.71306 21.7174 1.69141 21.7479 1.67051C21.7843 1.64513 21.8216 1.61976 21.8581 1.59587C21.8885 1.57572 21.9181 1.55631 21.9485 1.5369C21.9858 1.51302 22.023 1.49062 22.0603 1.46823C22.0907 1.45032 22.1203 1.43165 22.1507 1.41449C22.1887 1.39284 22.2267 1.37194 22.2648 1.35104C22.2944 1.33462 22.3248 1.3182 22.3545 1.30327C22.3932 1.28312 22.432 1.26445 22.4715 1.24579C22.5012 1.23161 22.53 1.21743 22.5597 1.20325C22.5688 1.19951 22.5779 1.19578 22.5863 1.1913C22.5947 1.19504 22.603 1.19877 22.6114 1.2025C22.6448 1.21743 22.6783 1.2346 22.7117 1.25027C22.7475 1.26744 22.7839 1.28535 22.8197 1.30327C22.8531 1.32044 22.8858 1.3391 22.9192 1.35701C22.955 1.37642 22.9907 1.39583 23.0264 1.41673C23.0591 1.43539 23.0926 1.45554 23.1252 1.47569C23.161 1.49734 23.1967 1.51899 23.2317 1.54138C23.2644 1.56228 23.297 1.58393 23.3297 1.60557C23.3647 1.62946 23.4004 1.6526 23.4354 1.67723C23.4681 1.69962 23.5 1.72351 23.5327 1.7474C23.5677 1.77277 23.6026 1.7989 23.6376 1.82502C23.6695 1.84966 23.7022 1.87503 23.7341 1.90041C23.7691 1.92803 23.8033 1.95565 23.8383 1.98401C23.8702 2.01014 23.9021 2.03776 23.934 2.06463C23.9683 2.09374 24.0032 2.1236 24.0374 2.1542C24.0694 2.18256 24.1005 2.21093 24.1324 2.24004C24.1667 2.27139 24.2009 2.30349 24.2351 2.33558C24.2662 2.36544 24.2974 2.39604 24.3293 2.42665C24.3635 2.46024 24.397 2.49383 24.4304 2.52816C24.4616 2.55951 24.4928 2.59236 24.5239 2.62445C24.5574 2.65953 24.5908 2.69536 24.6243 2.73194C24.6547 2.76553 24.6858 2.79912 24.7162 2.83345C24.7497 2.87077 24.7824 2.9081 24.8158 2.94616C24.8462 2.98125 24.8766 3.01707 24.907 3.0529C24.9397 3.09172 24.9724 3.13128 25.0059 3.17159C25.0363 3.20816 25.0659 3.24548 25.0963 3.2828C25.129 3.32386 25.1617 3.36491 25.1936 3.40671C25.2233 3.44478 25.2529 3.48359 25.2826 3.52315C25.3145 3.5657 25.3472 3.60974 25.3791 3.65303C25.4087 3.69334 25.4376 3.7329 25.4673 3.77396C25.4992 3.81874 25.5311 3.86353 25.5623 3.90981C25.5912 3.95161 25.6201 3.99341 25.6489 4.03595C25.6801 4.08223 25.712 4.13 25.7432 4.17703C25.7721 4.22032 25.8002 4.26361 25.8283 4.30765C25.8595 4.35617 25.8907 4.40544 25.9218 4.4547C25.95 4.49949 25.9781 4.54427 26.0062 4.58981C26.0366 4.63982 26.0678 4.69057 26.0982 4.74208C26.1263 4.78836 26.1537 4.83463 26.1811 4.88241C26.2115 4.93466 26.2419 4.98691 26.2715 5.0399C26.2989 5.08767 26.3262 5.13545 26.3536 5.18396C26.384 5.23771 26.4137 5.29294 26.4433 5.34818C26.4699 5.39744 26.4965 5.44596 26.5231 5.49597C26.5528 5.55195 26.5824 5.60868 26.6121 5.66541C26.6387 5.71617 26.6645 5.76618 26.6911 5.81768C26.7208 5.87516 26.7496 5.93413 26.7785 5.99235C26.8044 6.0446 26.8302 6.0961 26.8561 6.14835C26.885 6.20807 26.9138 6.26928 26.9427 6.32974C26.9678 6.38273 26.9929 6.43573 27.018 6.48873C27.0469 6.55068 27.075 6.61413 27.1039 6.67683C27.1282 6.73132 27.1533 6.78431 27.1776 6.83955C27.2057 6.90374 27.2339 6.96943 27.262 7.03437C27.2856 7.0896 27.3099 7.14409 27.3334 7.19933C27.3616 7.26576 27.3897 7.33369 27.4171 7.40086C27.4399 7.45685 27.4634 7.51208 27.4862 7.56881C27.5144 7.63823 27.5425 7.70914 27.5698 7.78005C27.5919 7.83603 27.6139 7.89127 27.636 7.94725C27.6641 8.0204 27.6922 8.09505 27.7204 8.16969C27.7409 8.22492 27.7622 8.27941 27.7827 8.3354C27.8116 8.41377 27.8405 8.49364 27.8693 8.57351C27.8884 8.6265 27.9081 8.67875 27.9264 8.73175C27.9583 8.82282 27.9902 8.91463 28.0221 9.00718C28.0373 9.05048 28.0525 9.09377 28.067 9.13706C28.0677 9.14005 28.0693 9.14378 28.07 9.14677C26.2882 9.66628 24.4471 10.3321 22.5886 11.1278C22.4191 11.0554 22.2496 10.9837 22.0808 10.9136C22.061 10.9054 22.0413 10.8971 22.0215 10.8889C21.8064 10.8001 21.592 10.7128 21.3777 10.6269C21.348 10.615 21.3184 10.6031 21.2887 10.5919C21.0797 10.509 20.8714 10.4276 20.6639 10.3485C20.6304 10.3358 20.5962 10.3224 20.5628 10.3097C20.3568 10.2313 20.1508 10.1552 19.9455 10.0798C19.9121 10.0679 19.8786 10.0552 19.8452 10.0432C19.6384 9.96859 19.4332 9.89544 19.2272 9.82453C19.1975 9.81408 19.1687 9.80437 19.139 9.79392C18.9292 9.72152 18.7194 9.65061 18.5104 9.58194C18.4906 9.57522 18.4708 9.56925 18.4511 9.56253C18.2329 9.49162 18.0163 9.42145 17.7996 9.35502C17.7973 9.35502 17.7951 9.35353 17.7935 9.35278C17.5784 9.28635 17.3641 9.22216 17.1505 9.15946C17.136 9.15498 17.1216 9.1505 17.1071 9.14602C17.1079 9.14378 17.1087 9.14154 17.1094 9.1393C17.1223 9.10049 17.136 9.06167 17.1497 9.02286C17.1824 8.92806 17.2143 8.83327 17.2478 8.73996C17.266 8.68771 17.285 8.63621 17.304 8.58396C17.3321 8.50558 17.3603 8.42646 17.3891 8.34883C17.4097 8.29285 17.431 8.23836 17.4515 8.18312C17.4788 8.11072 17.5062 8.03832 17.5336 7.96741C17.5556 7.90993 17.5784 7.85395 17.6005 7.79722C17.6271 7.72929 17.6544 7.66137 17.681 7.59419C17.7039 7.53671 17.7274 7.48073 17.751 7.424C17.7776 7.35906 17.805 7.29413 17.8316 7.22993C17.8551 7.1732 17.8794 7.11797 17.9038 7.06198C17.9311 6.99928 17.9577 6.93658 17.9851 6.87463C18.0094 6.81939 18.0345 6.76416 18.0588 6.70892C18.0862 6.64846 18.1136 6.588 18.1409 6.52829C18.166 6.4738 18.1911 6.42005 18.217 6.36631C18.2443 6.30734 18.2724 6.24912 18.3006 6.19165C18.3264 6.13865 18.3523 6.08565 18.3781 6.0334C18.4062 5.97667 18.4344 5.91995 18.4625 5.86396C18.4883 5.81246 18.5149 5.76096 18.5408 5.7102C18.5697 5.65496 18.5978 5.59973 18.6267 5.54524C18.6533 5.49523 18.6799 5.44522 18.7065 5.39595C18.7354 5.34221 18.765 5.28921 18.7939 5.23621C18.8205 5.1877 18.8471 5.13918 18.8745 5.09141C18.9041 5.03916 18.9338 4.98765 18.9642 4.93615C18.9915 4.88987 19.0182 4.84284 19.0455 4.79731C19.0759 4.74581 19.1071 4.6958 19.1375 4.64504C19.1641 4.601 19.1915 4.55622 19.2181 4.51218C19.25 4.46142 19.2812 4.41215 19.3131 4.36214C19.3397 4.32034 19.3663 4.27854 19.3929 4.23674C19.4264 4.18599 19.4598 4.13598 19.4932 4.08596C19.5191 4.0479 19.5442 4.00908 19.57 3.97101C19.6073 3.91652 19.6445 3.86427 19.6825 3.81128C19.7053 3.77918 19.7274 3.74708 19.7502 3.71573C19.8079 3.63587 19.8665 3.55749 19.9243 3.48061C19.9387 3.46195 19.9531 3.44403 19.9676 3.42537C20.0162 3.36193 20.0656 3.29848 20.1151 3.23727C20.1386 3.20816 20.1622 3.18054 20.1857 3.15218C20.2245 3.10515 20.2625 3.05813 20.3013 3.0126C20.3271 2.98199 20.3537 2.95214 20.3803 2.92228C20.4168 2.88048 20.4533 2.83868 20.4898 2.79837C20.5172 2.76777 20.5453 2.73866 20.5727 2.7088C20.6084 2.66998 20.6441 2.63192 20.6798 2.59459C20.708 2.56548 20.7369 2.53712 20.765 2.50801C20.8007 2.47218 20.8364 2.43635 20.8722 2.40127C20.901 2.3729 20.9299 2.34603 20.9596 2.31842C20.9953 2.28483 21.0303 2.25124 21.066 2.21914C21.0956 2.19227 21.1253 2.16614 21.1542 2.14002C21.1899 2.10867 21.2256 2.07732 21.2614 2.04671C21.291 2.02134 21.3207 1.9967 21.3503 1.97282C21.386 1.94371 21.4225 1.9146 21.4582 1.88623C21.4879 1.86309 21.5183 1.83995 21.5479 1.81681V1.81532ZM2.95388 11.0554C3.87899 9.48117 6.03325 8.66383 9.08146 8.66383C10.2726 8.66383 11.6014 8.78923 13.0464 9.04227C13.0396 9.06242 13.0335 9.08332 13.0266 9.10347C12.9696 9.27665 12.9126 9.45131 12.8579 9.62822C12.8571 9.6312 12.8564 9.63419 12.8548 9.63717C12.7986 9.81632 12.7446 9.99844 12.6907 10.1813C12.6808 10.2157 12.6701 10.2492 12.6603 10.2836C12.6086 10.4612 12.5584 10.6396 12.509 10.8195C12.4999 10.8539 12.49 10.8889 12.4809 10.9233C12.4649 10.983 12.4482 11.042 12.4322 11.1024C8.30154 10.2649 4.93103 10.3978 2.74864 11.4682C2.80869 11.3256 2.87635 11.1883 2.95388 11.0554ZM2.47043 12.5968C3.62434 11.7906 5.33619 11.3823 7.48362 11.3823C8.89066 11.3823 10.4839 11.557 12.227 11.9093C12.214 11.9623 12.2019 12.0168 12.189 12.0705C12.1768 12.1198 12.1646 12.1683 12.1532 12.2183C12.1403 12.2728 12.1281 12.3288 12.116 12.384C12.0863 12.5132 12.0567 12.6431 12.0278 12.7737C12.0141 12.8356 11.9997 12.8968 11.986 12.9595C11.9754 13.0081 11.9655 13.0581 11.9556 13.1073C11.9282 13.2342 11.9024 13.3619 11.8765 13.4902C11.8613 13.5649 11.8454 13.6388 11.8309 13.7142C11.8226 13.756 11.815 13.7985 11.8066 13.8403C11.7823 13.9665 11.7587 14.0941 11.7344 14.221C11.7184 14.3076 11.7017 14.3934 11.6857 14.4808C11.6797 14.5151 11.6736 14.5494 11.6675 14.583C11.6447 14.7107 11.6234 14.8391 11.6014 14.9674C11.5846 15.0645 11.5679 15.1615 11.5519 15.2593C11.5474 15.2854 11.5436 15.3108 11.539 15.3362C11.5177 15.4683 11.498 15.6012 11.4775 15.734C11.4623 15.8333 11.4463 15.9326 11.4318 16.0326C11.428 16.0565 11.4242 16.0804 11.4212 16.1043C11.4174 16.1326 11.4136 16.161 11.4098 16.1893C11.3931 16.3058 11.3771 16.4237 11.3612 16.5409C11.3497 16.6245 11.3376 16.7081 11.3269 16.7925C11.3231 16.8208 11.3193 16.8499 11.3163 16.8783C11.3057 16.9634 11.295 17.0492 11.2851 17.1351C11.2677 17.2769 11.2494 17.4187 11.2327 17.562C11.1985 17.5867 11.1643 17.612 11.1301 17.6367C11.0799 17.6732 11.029 17.7106 10.9788 17.7471C10.918 17.7919 10.8579 17.836 10.7979 17.8808C10.75 17.9158 10.7021 17.9517 10.655 17.9868C10.6405 17.9979 10.6253 18.0084 10.6109 18.0196C10.563 18.0554 10.5159 18.0913 10.4687 18.1263C10.4193 18.1637 10.3699 18.201 10.3205 18.2383C10.2612 18.2831 10.2027 18.3279 10.1442 18.3734C10.1092 18.4003 10.0735 18.4271 10.0385 18.454C10.0301 18.4607 10.0225 18.4667 10.0142 18.4734C10.0081 18.4779 10.0028 18.4824 9.99668 18.4869C9.93891 18.5316 9.88114 18.5764 9.82337 18.6212C9.77472 18.6593 9.72607 18.6974 9.67742 18.7354C9.62041 18.7802 9.56339 18.8257 9.50638 18.8705C9.50182 18.8743 9.4965 18.878 9.49194 18.8817C9.47294 18.8967 9.45393 18.9116 9.43493 18.9273C9.4106 18.9467 9.38628 18.9661 9.36195 18.9855C9.3057 19.0303 9.24945 19.0758 9.1932 19.1206C9.14531 19.1594 9.09666 19.1982 9.04877 19.237C9.00544 19.2721 8.96288 19.3072 8.92031 19.3415C8.89674 19.3609 8.87318 19.3803 8.84961 19.3997C8.81313 19.4296 8.7774 19.4587 8.74167 19.4886C8.68694 19.5341 8.63221 19.5789 8.57824 19.6244C8.53187 19.6632 8.48474 19.702 8.43837 19.7409C8.41025 19.764 8.38288 19.7879 8.35475 19.811C8.33195 19.8304 8.30991 19.8491 8.2871 19.8685C8.28406 19.8715 8.28026 19.8737 8.27722 19.8767C8.23085 19.9163 8.18448 19.9551 8.13811 19.9947C8.0849 20.0402 8.03169 20.0857 7.97924 20.1312C7.93363 20.1701 7.88802 20.2096 7.84317 20.2484C7.82873 20.2611 7.81429 20.2738 7.79984 20.2858C7.78616 20.2977 7.77324 20.3096 7.75956 20.3216C7.73447 20.3432 7.70939 20.3656 7.6843 20.3873C7.64021 20.4261 7.59536 20.4649 7.55127 20.5037C7.49806 20.5507 7.44561 20.5978 7.3924 20.6448C7.35059 20.6821 7.30803 20.7202 7.26622 20.7575C7.26318 20.7605 7.26014 20.7627 7.2571 20.7657C7.20465 20.8127 7.15296 20.8605 7.10051 20.9075C7.06098 20.9434 7.02069 20.9792 6.98192 21.0158C6.92263 21.0703 6.8641 21.1247 6.80557 21.1785C6.79721 21.1867 6.78808 21.1942 6.77972 21.2024C6.76908 21.2121 6.75768 21.2218 6.74703 21.2322C3.76116 17.933 2.25378 14.8861 2.47271 12.5945L2.47043 12.5968ZM10.8716 24.5188C10.8716 24.5285 10.8716 24.5382 10.8716 24.5479C10.8716 24.6076 10.8731 24.6673 10.8739 24.727C10.8754 24.8509 10.8769 24.9748 10.8792 25.098C10.8792 25.1144 10.8792 25.1308 10.8792 25.1473C10.4178 24.7666 9.97007 24.3829 9.54059 23.9993C9.54819 23.9925 9.55579 23.9858 9.56339 23.9784C9.58392 23.9604 9.60368 23.9425 9.62421 23.9246C9.64549 23.9059 9.66677 23.8873 9.68806 23.8686C9.777 23.7895 9.8667 23.7111 9.95791 23.632C10.0028 23.5932 10.0476 23.5536 10.0932 23.5148C10.1814 23.4387 10.2711 23.3625 10.36 23.2864C10.3927 23.258 10.4262 23.2304 10.4589 23.2021C10.4763 23.1871 10.4938 23.173 10.5113 23.158C10.6124 23.0729 10.7135 22.9886 10.8154 22.9042C10.8366 22.8871 10.8572 22.8692 10.8785 22.852C10.8785 22.8684 10.8785 22.8848 10.8785 22.9013C10.8762 23.0252 10.8747 23.1491 10.8731 23.273C10.8731 23.3327 10.8716 23.3924 10.8709 23.4521C10.8693 23.635 10.8686 23.8179 10.8686 24.0007C10.8686 24.1739 10.8686 24.3471 10.8709 24.5203L10.8716 24.5188ZM10.9134 26.2527C10.9203 26.4319 10.9286 26.6118 10.937 26.7902C10.94 26.8484 10.9423 26.9066 10.9453 26.9648C10.9575 27.2037 10.9712 27.4418 10.9864 27.6792C10.9879 27.7053 10.9902 27.7307 10.9917 27.7568C11.0062 27.9747 11.0214 28.192 11.0381 28.4092C11.0426 28.4652 11.0464 28.5211 11.051 28.5771C11.07 28.8107 11.0898 29.0436 11.1111 29.275C11.1118 29.2862 11.1126 29.2974 11.1141 29.3086C9.74279 28.2823 8.46878 27.2231 7.31487 26.149C7.39012 26.0706 7.46538 25.9915 7.54139 25.9131C7.55432 25.8997 7.568 25.8862 7.58092 25.8728C7.64933 25.8019 7.71927 25.7317 7.78844 25.6608C7.81733 25.6317 7.84621 25.6026 7.8751 25.5742C7.93059 25.519 7.98608 25.463 8.04157 25.4078C8.07426 25.3757 8.10694 25.3436 8.13963 25.3115C8.19284 25.2592 8.24681 25.2062 8.30078 25.154C8.33423 25.1211 8.36768 25.089 8.40112 25.0562C8.45661 25.0025 8.51211 24.9495 8.56836 24.8957C8.60028 24.8651 8.63221 24.8345 8.66414 24.8039C8.72723 24.7442 8.79108 24.6837 8.85569 24.624C8.87622 24.6046 8.89674 24.5859 8.91727 24.5665C9.54819 25.1316 10.2179 25.6974 10.9119 26.252L10.9134 26.2527ZM1.35376 13.7769C1.4313 13.6448 1.51872 13.5179 1.6145 13.3962C1.76273 15.787 3.33092 18.7197 6.13435 21.813C6.11611 21.8309 6.09863 21.848 6.08038 21.866C6.01957 21.9249 5.95952 21.9839 5.90023 22.0429C5.86906 22.0735 5.83789 22.1041 5.80749 22.1354C5.752 22.1907 5.69651 22.2459 5.64102 22.3019C5.60985 22.3332 5.57868 22.3646 5.54752 22.3959C5.49051 22.4534 5.43425 22.5109 5.378 22.5691C5.35064 22.5967 5.32327 22.6251 5.29667 22.6527C5.22065 22.7311 5.1454 22.8102 5.07014 22.8886C5.06406 22.8953 5.05798 22.9013 5.0519 22.908C4.97132 22.9923 4.89227 23.0774 4.81397 23.1618C4.78889 23.1886 4.76456 23.2148 4.74024 23.2416C4.70147 23.2834 4.6627 23.3252 4.62393 23.367C1.25875 19.4468 0.0668287 15.9669 1.35376 13.7769ZM2.36096 31.7263C2.34576 31.7614 2.33056 31.7965 2.31536 31.8316C2.28647 31.8995 2.25986 31.9674 2.2325 32.0346C2.22186 32.0622 2.21045 32.0898 2.19981 32.1167C2.16332 32.2107 2.1276 32.3048 2.09491 32.3981C2.08959 32.4138 2.08427 32.4294 2.07895 32.4451C2.05158 32.522 2.02574 32.5989 2.00065 32.6758C1.99001 32.7086 1.98013 32.7415 1.96949 32.775C1.95124 32.834 1.933 32.893 1.91552 32.9512C1.90487 32.9878 1.89499 33.0244 1.88435 33.0609C1.86915 33.1154 1.8547 33.1699 1.84026 33.2236C1.83038 33.261 1.82126 33.2983 1.81214 33.3356C1.79921 33.3886 1.78705 33.4416 1.77489 33.4946C1.76653 33.5312 1.75816 33.5678 1.75056 33.6043C1.73916 33.6588 1.72852 33.7133 1.71864 33.7671C1.71256 33.8006 1.70571 33.8342 1.69963 33.8678C1.68823 33.932 1.67911 33.9962 1.66999 34.0597C1.66695 34.082 1.66239 34.1052 1.66011 34.1276C1.6487 34.2119 1.63882 34.2963 1.63122 34.3799C1.62818 34.4075 1.62666 34.4351 1.62438 34.4627C1.62058 34.5098 1.61602 34.556 1.61298 34.6023C1.51796 34.4806 1.4313 34.353 1.35376 34.2216C0.0273008 31.9644 1.33324 28.3375 4.93788 24.2717C5.56652 23.5626 6.26586 22.8423 7.01537 22.1294C7.15524 21.9966 7.29814 21.8637 7.44181 21.7316C7.46462 21.7107 7.48742 21.689 7.51099 21.6681C7.64933 21.5413 7.7892 21.4144 7.93135 21.2875C7.95796 21.2643 7.9838 21.2404 8.01041 21.2173C8.15483 21.0889 8.30078 20.9605 8.44901 20.8321C8.46346 20.8195 8.4779 20.8068 8.4931 20.7948C8.63753 20.6702 8.78348 20.5455 8.93171 20.4216C8.94995 20.4067 8.96744 20.391 8.98568 20.3761C9.13619 20.2499 9.28822 20.1245 9.44177 19.9984C9.47142 19.9745 9.50106 19.9499 9.53071 19.926C9.68274 19.8021 9.83629 19.6789 9.9906 19.5565C10.0172 19.5356 10.0438 19.5147 10.0704 19.493C10.2255 19.3699 10.3828 19.2475 10.5409 19.1258C10.5501 19.1191 10.5584 19.1124 10.5676 19.1057C10.7287 18.9817 10.8921 18.8578 11.0563 18.7347C11.0761 18.7197 11.0951 18.7056 11.1149 18.6906C11.1141 18.7018 11.1126 18.7138 11.1118 18.725C11.0913 18.9437 11.0723 19.1639 11.0548 19.3848C11.0502 19.4415 11.0457 19.499 11.0411 19.5557C11.0274 19.7356 11.0138 19.9163 11.0016 20.0977C10.9978 20.1529 10.994 20.2074 10.9902 20.2626C10.9758 20.4851 10.9628 20.709 10.9507 20.9322C10.9484 20.9814 10.9461 21.03 10.9431 21.0792C10.9339 21.2643 10.9256 21.4494 10.918 21.6346C10.9165 21.6719 10.9142 21.7085 10.9127 21.7458C10.8807 21.7712 10.8488 21.7973 10.8169 21.8227C10.7926 21.8421 10.7675 21.8622 10.7431 21.8816C10.7234 21.8973 10.7044 21.913 10.6854 21.9287C10.6268 21.9764 10.5683 22.0242 10.5098 22.072C10.4657 22.1078 10.4216 22.1436 10.3783 22.1802C10.3197 22.228 10.262 22.2757 10.2042 22.3243C10.1609 22.3601 10.1175 22.3959 10.075 22.4317C10.0164 22.481 9.95867 22.5295 9.9009 22.5788C9.85985 22.6139 9.81805 22.649 9.777 22.6833C9.71771 22.7341 9.65841 22.7848 9.59912 22.8356C9.56796 22.8617 9.53679 22.8886 9.50638 22.9147C9.5003 22.9199 9.49422 22.9259 9.48738 22.9311C9.48586 22.9326 9.48434 22.9341 9.48282 22.9356C9.42049 22.9893 9.35967 23.0431 9.2981 23.0968C9.26313 23.1274 9.22817 23.158 9.19396 23.1879C9.12631 23.2476 9.05941 23.3073 8.99252 23.367C8.96516 23.3917 8.93703 23.4163 8.9089 23.4409C8.81465 23.5253 8.72115 23.6096 8.62917 23.694C8.62917 23.694 8.62841 23.694 8.62765 23.6947L8.2947 23.9985L8.29622 24C8.21185 24.0791 8.12747 24.1575 8.04385 24.2366C7.46842 24.7823 6.92035 25.3354 6.40877 25.8855L6.13131 26.1841L6.13283 26.1856C6.12523 26.1938 6.11839 26.202 6.11079 26.2102C6.07962 26.2453 6.04846 26.2796 6.01729 26.3139C5.95116 26.3871 5.88578 26.461 5.82117 26.5341C5.78544 26.5752 5.75048 26.6155 5.71475 26.6558C5.65622 26.723 5.59769 26.7909 5.53992 26.8581C5.50419 26.9006 5.4677 26.9424 5.43273 26.985C5.37648 27.0514 5.32099 27.1178 5.2655 27.1843C5.24498 27.2089 5.22445 27.2335 5.20393 27.2574C5.19025 27.2738 5.17732 27.291 5.16364 27.3074C5.10663 27.3769 5.05038 27.4463 4.99489 27.5149C4.96448 27.5523 4.93484 27.5896 4.90519 27.6269C4.84058 27.7083 4.77748 27.7889 4.71515 27.8695C4.69615 27.8941 4.67562 27.9195 4.65662 27.9441C4.57452 28.0501 4.49471 28.1561 4.41565 28.2621C4.40121 28.2815 4.38753 28.3002 4.37384 28.3196C4.31075 28.4054 4.24766 28.4913 4.18609 28.5764C4.161 28.6107 4.13744 28.645 4.11235 28.6801C4.06294 28.7503 4.01353 28.8197 3.96488 28.8899C3.93828 28.9279 3.91243 28.9668 3.88583 29.0048C3.84098 29.0713 3.79613 29.1369 3.75204 29.2026C3.7262 29.2414 3.70035 29.2803 3.67527 29.3191C3.63194 29.3855 3.58937 29.4512 3.5468 29.5169C3.52324 29.5542 3.49891 29.5915 3.47611 29.6281C3.43126 29.699 3.38793 29.7692 3.34536 29.8393C3.32636 29.8707 3.30659 29.902 3.28759 29.9334C3.22982 30.0289 3.17433 30.1237 3.1196 30.2185C3.11655 30.2245 3.11275 30.2305 3.10971 30.2357C3.05118 30.3372 2.99493 30.438 2.9402 30.538C2.925 30.5656 2.91055 30.5925 2.89611 30.6201C2.85734 30.6918 2.81858 30.7642 2.78209 30.8351C2.76384 30.8709 2.7456 30.906 2.72812 30.9411C2.69619 31.0045 2.66426 31.068 2.6331 31.1307C2.61485 31.1687 2.59661 31.206 2.57837 31.2434C2.54948 31.3046 2.5206 31.365 2.49247 31.4255C2.47499 31.4628 2.45826 31.5009 2.44078 31.5382C2.41341 31.6002 2.38605 31.6614 2.3602 31.7226L2.36096 31.7263ZM2.46739 35.3778C2.46434 35.3413 2.46206 35.3032 2.45978 35.2659C2.4575 35.2278 2.45446 35.189 2.45294 35.1502C2.45142 35.1121 2.45066 35.0741 2.45066 35.036C2.45066 34.9972 2.44914 34.9576 2.4499 34.9188C2.4499 34.88 2.45142 34.8404 2.45294 34.8016C2.45446 34.762 2.45522 34.7225 2.4575 34.6822C2.45978 34.6426 2.46282 34.6023 2.46587 34.5627C2.46891 34.5224 2.47195 34.4821 2.47575 34.4411C2.47955 34.4008 2.48411 34.3597 2.48943 34.3194C2.49399 34.2784 2.49931 34.2373 2.50463 34.1955C2.50995 34.1544 2.5168 34.1126 2.52364 34.0716C2.53048 34.0298 2.53732 33.988 2.54416 33.9462C2.55176 33.9044 2.56012 33.8618 2.56849 33.82C2.57685 33.7775 2.58521 33.735 2.59509 33.6924C2.60421 33.6499 2.61409 33.6066 2.62474 33.5633C2.63462 33.52 2.64526 33.4774 2.65666 33.4341C2.66807 33.3909 2.67947 33.3468 2.69163 33.3035C2.70379 33.2595 2.71595 33.2162 2.72888 33.1721C2.7418 33.1281 2.75472 33.0841 2.76841 33.0393C2.78209 32.9952 2.79653 32.9505 2.81097 32.9057C2.82542 32.8609 2.84062 32.8161 2.85582 32.7713C2.87103 32.7265 2.88699 32.681 2.90371 32.6362C2.92044 32.5907 2.93716 32.5451 2.95388 32.4996C2.97137 32.4541 2.98885 32.4085 3.00709 32.363C3.02534 32.3167 3.04358 32.2712 3.06258 32.2249C3.08159 32.1786 3.10135 32.1324 3.12112 32.0861C3.14088 32.0398 3.1614 31.9928 3.18193 31.9465C3.20245 31.9002 3.22374 31.8532 3.24502 31.8062C3.2663 31.7592 3.28835 31.7121 3.31115 31.6644C3.3332 31.6173 3.35676 31.5696 3.37957 31.5225C3.40313 31.4748 3.42594 31.427 3.45026 31.3792C3.47459 31.3314 3.49891 31.2829 3.524 31.2352C3.54908 31.1874 3.57417 31.1389 3.60001 31.0903C3.62586 31.0418 3.65246 30.9933 3.67907 30.9448C3.70567 30.8963 3.73228 30.8478 3.75964 30.7985C3.78701 30.7492 3.81589 30.7 3.84402 30.6514C3.87214 30.6022 3.90027 30.5537 3.92992 30.5044C3.95956 30.4544 3.98921 30.4051 4.01961 30.3551C4.04926 30.3059 4.07891 30.2566 4.11007 30.2066C4.14124 30.1566 4.17316 30.1058 4.20509 30.0558C4.23626 30.0058 4.26818 29.9565 4.30011 29.9065C4.3328 29.8558 4.367 29.805 4.40045 29.7535C4.43314 29.7035 4.46658 29.6535 4.50003 29.6035C4.53424 29.552 4.56996 29.5005 4.60569 29.4489C4.64066 29.3982 4.67486 29.3482 4.71059 29.2974C4.74708 29.2459 4.78433 29.1937 4.82157 29.1414C4.8573 29.0907 4.89379 29.0406 4.93027 28.9899C4.96904 28.9369 5.00857 28.8839 5.0481 28.8309C5.08535 28.7809 5.12183 28.7301 5.15984 28.6801C5.20013 28.6264 5.24194 28.5719 5.28374 28.5181C5.32251 28.4681 5.35976 28.4181 5.39929 28.3674C5.44186 28.3121 5.48594 28.2569 5.53003 28.2024C5.56956 28.1524 5.60833 28.1031 5.64862 28.0531C5.69423 27.9971 5.7406 27.9404 5.78696 27.8837C5.82725 27.8344 5.86678 27.7859 5.90783 27.7366C5.95572 27.6784 6.00589 27.6202 6.05454 27.562C6.09483 27.5142 6.13511 27.4657 6.17616 27.4179C6.22861 27.3567 6.28258 27.2955 6.33579 27.2335C6.37532 27.188 6.41409 27.1432 6.45438 27.0977C6.51443 27.029 6.57676 26.9603 6.63833 26.8917C6.6733 26.8529 6.70675 26.8148 6.74171 26.776C6.74399 26.7737 6.74627 26.7715 6.74856 26.7685C8.09782 28.0225 9.6052 29.2556 11.2372 30.441C11.2608 30.6455 11.2851 30.85 11.311 31.0523C11.3224 31.1419 11.3353 31.2299 11.3467 31.3188C11.3695 31.4919 11.3923 31.6651 11.4174 31.8368C11.4326 31.9413 11.4486 32.045 11.4645 32.1488C11.4873 32.3033 11.5109 32.4578 11.5352 32.6108C11.5527 32.7206 11.571 32.8288 11.5892 32.9378C11.6135 33.0841 11.6378 33.2304 11.6637 33.3752C11.6835 33.4864 11.704 33.5961 11.7237 33.7066C11.7496 33.8477 11.7762 33.9887 11.8028 34.1291C11.8241 34.2395 11.8461 34.35 11.8689 34.4597C11.8971 34.5978 11.9252 34.7352 11.9541 34.871C11.9776 34.9807 12.0012 35.0897 12.0248 35.198C12.0544 35.3331 12.0848 35.4674 12.116 35.6018C12.1411 35.7093 12.1654 35.816 12.1912 35.922C12.2049 35.9787 12.2178 36.0362 12.2315 36.0929C7.82949 36.9827 4.38677 36.7416 2.47575 35.4092C2.47499 35.4002 2.47347 35.3905 2.47271 35.3816L2.46739 35.3778ZM2.95388 36.9439C2.87559 36.811 2.80793 36.6729 2.74788 36.5303C3.98161 37.1357 5.59313 37.4425 7.50871 37.4425C8.98264 37.4425 10.636 37.2611 12.4322 36.8968C12.439 36.923 12.4466 36.9491 12.4535 36.9752C12.474 37.0521 12.4945 37.129 12.5158 37.2059C12.528 37.2506 12.5409 37.2962 12.5531 37.341C12.5728 37.4126 12.5934 37.4843 12.6139 37.5552C12.6268 37.6 12.6397 37.6448 12.6519 37.6888C12.6739 37.7642 12.696 37.8388 12.718 37.9135C12.7294 37.9515 12.7408 37.9904 12.7522 38.0284C12.7842 38.1344 12.8161 38.2389 12.8488 38.3434C12.851 38.3494 12.8526 38.3561 12.8548 38.3621C12.8898 38.4733 12.9248 38.5845 12.9605 38.6942C12.9704 38.7256 12.981 38.7569 12.9909 38.7883C13.0092 38.845 13.0274 38.9017 13.0464 38.9577C7.90626 39.8594 4.24158 39.1339 2.95388 36.9439ZM20.9862 47.167C18.3325 47.167 15.7875 44.2425 14.0034 39.1436C13.6918 38.2531 13.4052 37.2984 13.1528 36.3057C12.6663 34.3978 12.2969 32.3309 12.0536 30.164C11.9039 28.8242 11.802 27.4343 11.7526 26.0348C11.7291 25.3675 11.7169 24.683 11.7169 24C11.7169 23.317 11.7291 22.6325 11.7526 21.9652C11.8028 20.5649 11.9039 19.1758 12.0536 17.836C12.1145 17.2941 12.1829 16.7589 12.2597 16.2304C12.3075 15.8997 12.3592 15.5735 12.4132 15.2488C12.6177 14.0165 12.864 12.8267 13.1528 11.6928C13.1908 11.5428 13.2304 11.3943 13.2699 11.2457C13.4926 10.415 13.7381 9.61254 14.0034 8.85566C15.7875 3.75604 18.3325 0.831524 20.9862 0.831524C21.1413 0.831524 21.2971 0.841974 21.4522 0.862128C21.4096 0.889746 21.3678 0.918857 21.3252 0.947968C21.3054 0.961403 21.2857 0.974093 21.2659 0.987528C21.1952 1.03679 21.1253 1.08755 21.0554 1.14055C21.0417 1.151 21.028 1.16219 21.0143 1.17264C20.9581 1.21594 20.9026 1.25923 20.8463 1.30476C20.822 1.32417 20.7977 1.34507 20.7733 1.36522C20.7285 1.40254 20.6829 1.44061 20.638 1.48017C20.6114 1.50331 20.5848 1.5272 20.5582 1.55108C20.5156 1.58915 20.4738 1.62722 20.4313 1.66678C20.4039 1.69216 20.3773 1.71754 20.3507 1.74292C20.3089 1.78322 20.2663 1.82428 20.2245 1.86608C20.1987 1.8922 20.1728 1.91758 20.147 1.94371C20.1021 1.98924 20.058 2.03552 20.0139 2.0818C19.9911 2.10568 19.9683 2.12957 19.9463 2.15345C19.8893 2.21466 19.833 2.27736 19.7768 2.34155C19.7677 2.352 19.7578 2.36245 19.7487 2.3729C19.6825 2.44829 19.6172 2.52518 19.5525 2.60355C19.5343 2.62594 19.5161 2.64908 19.497 2.67148C19.4507 2.72821 19.4043 2.78568 19.3587 2.8439C19.3351 2.87376 19.3116 2.90511 19.288 2.93497C19.247 2.98796 19.2067 3.04096 19.1664 3.09545C19.1413 3.12904 19.117 3.16263 19.0919 3.19622C19.0531 3.24996 19.0144 3.3037 18.9756 3.35819C18.9513 3.39328 18.9262 3.42761 18.9018 3.46269C18.8623 3.51942 18.8236 3.5769 18.784 3.63512C18.7612 3.66946 18.7384 3.70304 18.7149 3.73738C18.6715 3.80307 18.6282 3.8695 18.5856 3.93668C18.5674 3.96504 18.5499 3.99191 18.5317 4.02028C18.4708 4.11657 18.4108 4.21435 18.3507 4.31363C18.3447 4.32408 18.3378 4.33527 18.3317 4.34572C18.2785 4.43455 18.2261 4.52412 18.1736 4.61593C18.1539 4.65027 18.1349 4.68535 18.1151 4.71968C18.0763 4.78836 18.0376 4.85777 17.9988 4.92868C17.9767 4.96899 17.9547 5.01005 17.9327 5.0511C17.8969 5.11753 17.8612 5.18471 17.8255 5.25189C17.8027 5.29518 17.7806 5.33848 17.7578 5.38177C17.7229 5.44969 17.6879 5.51837 17.6537 5.58778C17.6316 5.63108 17.6104 5.67437 17.5883 5.71841C17.5526 5.79156 17.5169 5.86546 17.4811 5.9401C17.4614 5.98115 17.4424 6.02146 17.4226 6.06251C17.38 6.15283 17.3382 6.24464 17.2964 6.33645C17.2842 6.36258 17.2728 6.38796 17.2607 6.41408C17.2075 6.53277 17.1543 6.65294 17.1018 6.77461C17.0881 6.80745 17.0744 6.84029 17.06 6.87314C17.022 6.96271 16.984 7.05303 16.946 7.14484C16.927 7.19112 16.908 7.2374 16.8897 7.28368C16.8578 7.36354 16.8251 7.44341 16.794 7.52403C16.7742 7.57478 16.7537 7.62629 16.7339 7.67779C16.7035 7.75617 16.6738 7.83454 16.6434 7.91366C16.6237 7.96666 16.6039 8.01966 16.5841 8.0734C16.5545 8.15401 16.5249 8.23537 16.4952 8.31674C16.4762 8.36899 16.4572 8.42198 16.4382 8.47498C16.407 8.56306 16.3759 8.65263 16.3455 8.7422C16.3295 8.78923 16.3128 8.83551 16.2968 8.88328C16.2938 8.89298 16.29 8.90268 16.2869 8.91239H16.2846L16.1615 9.29307C16.1615 9.29456 16.1607 9.29605 16.16 9.2968L16.0277 9.7051H16.0308C15.8179 10.3926 15.6203 11.1091 15.4401 11.8444H15.4378L15.336 12.2788C15.336 12.2788 15.336 12.2795 15.336 12.2803L15.2486 12.6572H15.2501C15.0661 13.4805 14.9027 14.3322 14.7605 15.1973H14.7598L14.7301 15.3825C14.7301 15.3832 14.7301 15.3839 14.7301 15.3854C14.7035 15.5511 14.6777 15.7176 14.6526 15.8855C14.5279 16.7223 14.4223 17.5762 14.3371 18.4391C14.3098 18.7183 14.2847 18.9982 14.2619 19.2788H14.2611L14.2452 19.4774C14.1273 20.9516 14.068 22.4728 14.068 23.9978C14.068 24.1881 14.0688 24.3792 14.0711 24.5695C14.0734 24.7696 14.0764 24.9696 14.0802 25.1697C14.103 26.2998 14.1577 27.4224 14.2452 28.5181C14.2452 28.5211 14.2452 28.5249 14.2459 28.5279L14.2611 28.7167C14.3554 29.8647 14.4861 31.003 14.6518 32.11C14.6769 32.2772 14.7028 32.4436 14.7294 32.6101C14.7294 32.6138 14.7309 32.6175 14.7309 32.622L14.759 32.7982H14.7598C14.7712 32.8683 14.7826 32.9385 14.794 33.0087C14.9278 33.8021 15.0798 34.5829 15.2486 35.3383H15.247L15.3345 35.7152C15.3345 35.7152 15.3345 35.716 15.3345 35.7167L15.4363 36.1519H15.4386C15.618 36.8841 15.8156 37.6 16.0292 38.2904H16.0262L16.1585 38.6995L16.2831 39.0846H16.2854C16.2892 39.0943 16.2923 39.104 16.2961 39.1145C16.3113 39.1593 16.3272 39.2041 16.3424 39.2488C16.3736 39.3407 16.4055 39.4317 16.4374 39.522C16.4557 39.5743 16.4747 39.6258 16.4929 39.6773C16.5226 39.7594 16.5522 39.8415 16.5826 39.9229C16.6024 39.9759 16.6222 40.0289 16.6419 40.0811C16.6716 40.161 16.702 40.2394 16.7324 40.3177C16.7521 40.3692 16.7719 40.42 16.7924 40.4707C16.8244 40.5514 16.8563 40.6312 16.8882 40.7104C16.9072 40.7574 16.9262 40.8037 16.9452 40.8499C16.9832 40.941 17.0212 41.0313 17.0592 41.1216C17.0729 41.1545 17.0866 41.1873 17.1011 41.2194C17.1535 41.3411 17.206 41.4613 17.2599 41.5799C17.2721 41.6061 17.2835 41.6322 17.2957 41.6583C17.3375 41.7501 17.3793 41.8419 17.4218 41.9323C17.4408 41.9733 17.4606 42.0136 17.4796 42.0539C17.5153 42.1286 17.5511 42.2032 17.5868 42.2764C17.6081 42.3204 17.6301 42.363 17.6514 42.4062C17.6864 42.4757 17.7213 42.5451 17.7563 42.613C17.7783 42.6563 17.8004 42.6988 17.8224 42.7414C17.8582 42.8101 17.8946 42.878 17.9304 42.9452C17.9517 42.9855 17.9737 43.025 17.995 43.0646C18.0345 43.1363 18.074 43.2072 18.1136 43.2781C18.1326 43.3109 18.1508 43.3445 18.1698 43.3774C18.2246 43.4729 18.2793 43.5669 18.3348 43.6595C18.3386 43.6662 18.3424 43.6729 18.3469 43.6797C18.407 43.7797 18.4678 43.8782 18.5286 43.9752C18.5453 44.0014 18.5613 44.0267 18.578 44.0521C18.6221 44.1215 18.667 44.191 18.7118 44.2589C18.7331 44.2917 18.7551 44.3238 18.7772 44.3559C18.8175 44.4156 18.8578 44.4754 18.8988 44.5343C18.9224 44.5679 18.9452 44.6015 18.9687 44.6343C19.009 44.6911 19.0493 44.7471 19.0896 44.8023C19.1132 44.8344 19.1367 44.8665 19.1603 44.8986C19.2021 44.9546 19.2439 45.0098 19.2865 45.0643C19.3085 45.0926 19.3306 45.1218 19.3526 45.1501C19.4005 45.2113 19.4492 45.2718 19.4978 45.3315C19.5138 45.3517 19.5297 45.3718 19.5465 45.3912C19.6118 45.4703 19.678 45.5487 19.7449 45.6249C19.7509 45.6323 19.7578 45.639 19.7639 45.6458C19.8232 45.7137 19.8832 45.7794 19.9433 45.8443C19.9638 45.8667 19.9851 45.8883 20.0063 45.9107C20.052 45.9593 20.0983 46.0078 20.1447 46.0548C20.169 46.0802 20.1941 46.1041 20.2184 46.1287C20.2618 46.172 20.3051 46.2145 20.3484 46.2556C20.3743 46.2802 20.4001 46.3049 20.426 46.3287C20.4693 46.369 20.5126 46.4086 20.5567 46.4482C20.5825 46.4713 20.6076 46.4937 20.6335 46.5161C20.6798 46.5564 20.7262 46.596 20.7726 46.634C20.7954 46.6534 20.8182 46.6728 20.8418 46.6915C20.8995 46.7385 20.9581 46.7841 21.0166 46.8288C21.028 46.8378 21.0394 46.8468 21.0508 46.8557C21.1207 46.9087 21.1914 46.9602 21.2629 47.0095C21.2819 47.0229 21.3009 47.0349 21.3199 47.0476C21.3625 47.0767 21.405 47.1065 21.4484 47.1341C21.2933 47.1543 21.1375 47.164 20.9824 47.164L20.9862 47.167ZM23.5334 46.2526C23.5008 46.2765 23.4688 46.2996 23.4361 46.3228C23.4012 46.3474 23.3655 46.3705 23.3305 46.3944C23.2978 46.4161 23.2651 46.4385 23.2324 46.4594C23.1975 46.4818 23.1617 46.5034 23.126 46.5251C23.0933 46.5452 23.0599 46.5654 23.0272 46.584C22.9915 46.6042 22.9557 46.6236 22.92 46.643C22.8866 46.6609 22.8531 46.6796 22.8204 46.6967C22.7847 46.7154 22.749 46.7326 22.7132 46.7497C22.6798 46.7661 22.6464 46.7826 22.6129 46.7975C22.6045 46.8012 22.5962 46.805 22.5878 46.8087C22.5787 46.805 22.5703 46.8012 22.5612 46.7968C22.5316 46.7833 22.5019 46.7684 22.4723 46.7542C22.4335 46.7355 22.3947 46.7169 22.356 46.6967C22.3256 46.6811 22.2959 46.6646 22.2655 46.6482C22.2275 46.6273 22.1895 46.6072 22.1523 46.5855C22.1218 46.5683 22.0914 46.5497 22.061 46.5318C22.0238 46.5094 21.9865 46.487 21.9493 46.4631C21.9189 46.4437 21.8885 46.4235 21.8581 46.4041C21.8216 46.3795 21.7843 46.3549 21.7479 46.3295C21.7174 46.3086 21.687 46.2869 21.6574 46.2653C21.6209 46.2392 21.5844 46.2123 21.5487 46.1847C21.5183 46.1615 21.4879 46.1384 21.4582 46.1153C21.4225 46.0869 21.3868 46.0585 21.3511 46.0287C21.3206 46.004 21.291 45.9794 21.2614 45.954C21.2256 45.9242 21.1899 45.8928 21.1549 45.8615C21.1253 45.8353 21.0956 45.8092 21.066 45.7824C21.0303 45.7503 20.9953 45.7167 20.9596 45.6838C20.9299 45.6562 20.901 45.6286 20.8714 45.6002C20.8357 45.5659 20.8007 45.5301 20.7657 45.4942C20.7369 45.4651 20.708 45.4368 20.6798 45.4069C20.6441 45.3696 20.6084 45.3315 20.5727 45.2934C20.5445 45.2636 20.5172 45.2337 20.489 45.2031C20.4526 45.1628 20.4161 45.121 20.3796 45.0792C20.353 45.0494 20.3264 45.0195 20.3005 44.9889C20.2618 44.9434 20.223 44.8963 20.1842 44.8493C20.1607 44.8209 20.1371 44.7933 20.1143 44.7642C20.0641 44.7015 20.0139 44.6373 19.9645 44.5731C19.9531 44.5582 19.9417 44.544 19.9303 44.5291C19.8695 44.45 19.8095 44.3686 19.7502 44.2858C19.7281 44.2552 19.7053 44.2223 19.6833 44.191C19.6453 44.138 19.608 44.085 19.57 44.0305C19.5442 43.9932 19.5191 43.9551 19.494 43.917C19.4598 43.867 19.4264 43.817 19.3929 43.7655C19.3663 43.7252 19.3397 43.6834 19.3139 43.6416C19.2819 43.5916 19.25 43.5416 19.2181 43.4901C19.1915 43.4468 19.1649 43.4027 19.1375 43.3587C19.1063 43.3079 19.0752 43.2572 19.0448 43.2049C19.0182 43.1594 18.9915 43.1139 18.9649 43.0676C18.9345 43.0153 18.9041 42.9631 18.8745 42.9101C18.8479 42.8631 18.8213 42.8153 18.7954 42.7675C18.7658 42.7138 18.7361 42.66 18.7065 42.6055C18.6799 42.5563 18.654 42.507 18.6274 42.4577C18.5985 42.4025 18.5697 42.3473 18.5408 42.292C18.5149 42.2413 18.4891 42.1905 18.4632 42.139C18.4344 42.0823 18.4062 42.0256 18.3781 41.9681C18.3523 41.9158 18.3272 41.8643 18.3013 41.8113C18.2732 41.7531 18.2451 41.6942 18.217 41.6344C18.1919 41.5814 18.1668 41.5277 18.1417 41.474C18.1136 41.4135 18.0862 41.3523 18.0588 41.2911C18.0345 41.2366 18.0102 41.1828 17.9859 41.1276C17.9585 41.0649 17.9311 41.0015 17.9038 40.938C17.8802 40.8828 17.8566 40.8283 17.8331 40.7723C17.8057 40.7074 17.7783 40.6409 17.751 40.5753C17.7282 40.52 17.7054 40.4648 17.6826 40.408C17.6552 40.3401 17.6278 40.2707 17.6005 40.2013C17.5784 40.1461 17.5564 40.0908 17.5351 40.0348C17.507 39.9624 17.4796 39.8893 17.4522 39.8161C17.4317 39.7616 17.4112 39.7071 17.3907 39.6527C17.3618 39.5743 17.3329 39.4944 17.3048 39.4153C17.2865 39.3638 17.2675 39.313 17.2493 39.2615C17.2166 39.1682 17.1839 39.0734 17.1512 38.9786C17.1375 38.9398 17.1239 38.9018 17.1109 38.8622C17.1102 38.86 17.1094 38.8577 17.1087 38.8555C17.1208 38.8517 17.1337 38.848 17.1459 38.8443C17.3625 38.7808 17.5792 38.7159 17.7973 38.648C17.7981 38.648 17.7989 38.648 17.7996 38.6472C18.017 38.58 18.2344 38.5099 18.4534 38.4382C18.4739 38.4315 18.4936 38.4248 18.5142 38.4181C18.7225 38.3494 18.9315 38.2792 19.1405 38.2068C19.1709 38.1964 19.2013 38.1859 19.2325 38.1755C19.437 38.1046 19.6415 38.0322 19.8467 37.9575C19.8817 37.9448 19.9159 37.9321 19.9509 37.9194C20.1553 37.8448 20.3598 37.7687 20.5651 37.691C20.5993 37.6776 20.6342 37.6649 20.6692 37.6515C20.876 37.5724 21.0835 37.4917 21.2918 37.4089C21.3222 37.3969 21.3518 37.385 21.3822 37.3731C21.5958 37.288 21.8102 37.2014 22.0245 37.1126C22.0443 37.1043 22.0648 37.0954 22.0846 37.0872C22.2534 37.017 22.4221 36.9461 22.5909 36.8737C24.4532 37.6709 26.2943 38.336 28.0723 38.8547C28.0715 38.8577 28.07 38.8614 28.0693 38.8644C28.0548 38.9062 28.0404 38.9473 28.0259 38.9883C27.9933 39.0824 27.9613 39.1772 27.9286 39.2697C27.9104 39.3212 27.8914 39.3713 27.8732 39.4228C27.8435 39.5041 27.8146 39.5862 27.785 39.6668C27.7644 39.7213 27.7439 39.7743 27.7242 39.8288C27.6953 39.9042 27.6671 39.9803 27.6383 40.055C27.617 40.1102 27.5949 40.1647 27.5737 40.2192C27.5455 40.2909 27.5174 40.3633 27.4885 40.4334C27.4665 40.4887 27.4437 40.5424 27.4209 40.5969C27.3927 40.6656 27.3638 40.735 27.335 40.8029C27.3122 40.8574 27.2886 40.9104 27.265 40.9641C27.2361 41.0306 27.2073 41.0978 27.1784 41.1627C27.1548 41.2157 27.1305 41.2687 27.1069 41.3209C27.078 41.3851 27.0491 41.4501 27.0195 41.5135C26.9952 41.5658 26.9709 41.6173 26.9458 41.6688C26.9161 41.7307 26.8872 41.7927 26.8576 41.8539C26.8325 41.9054 26.8074 41.9561 26.7823 42.0069C26.7527 42.0666 26.723 42.1263 26.6934 42.1853C26.6676 42.2361 26.6417 42.2853 26.6159 42.3353C26.5862 42.3928 26.5558 42.4503 26.5262 42.507C26.4996 42.5563 26.4737 42.6048 26.4471 42.6533C26.4167 42.7085 26.3863 42.7645 26.3559 42.819C26.3293 42.8668 26.3027 42.9138 26.2753 42.9608C26.2449 43.0146 26.2137 43.0683 26.1833 43.1213C26.156 43.1676 26.1286 43.2131 26.1012 43.2587C26.0701 43.3102 26.0397 43.3624 26.0085 43.4132C25.9811 43.458 25.953 43.5028 25.9249 43.5468C25.8937 43.5968 25.8625 43.6461 25.8306 43.6953C25.8025 43.7386 25.7744 43.7819 25.7462 43.8245C25.7143 43.8722 25.6832 43.92 25.6512 43.967C25.6223 44.0088 25.5942 44.0506 25.5653 44.0917C25.5334 44.138 25.5015 44.1835 25.4696 44.2283C25.4407 44.2686 25.4118 44.3089 25.3821 44.3485C25.3502 44.3925 25.3175 44.4358 25.2848 44.4791C25.2552 44.5179 25.2255 44.5567 25.1967 44.5948C25.164 44.6366 25.1313 44.6784 25.0986 44.7194C25.069 44.7568 25.0393 44.7933 25.0089 44.8299C24.9762 44.8702 24.9428 44.9098 24.9101 44.9493C24.8797 44.9852 24.85 45.0202 24.8196 45.0553C24.7862 45.0934 24.7535 45.1315 24.72 45.1688C24.6896 45.2031 24.6592 45.2367 24.6281 45.2696C24.5946 45.3061 24.5612 45.3412 24.5277 45.377C24.4966 45.4091 24.4662 45.4412 24.435 45.4733C24.4015 45.5077 24.3673 45.5413 24.3331 45.5748C24.302 45.6054 24.2708 45.6361 24.2396 45.6659C24.2054 45.698 24.1712 45.7301 24.137 45.7615C24.1051 45.7906 24.0739 45.8189 24.042 45.8473C24.0078 45.8779 23.9736 45.907 23.9386 45.9369C23.9067 45.9645 23.8748 45.9914 23.8428 46.0175C23.8086 46.0458 23.7737 46.0735 23.7387 46.1011C23.7068 46.1265 23.6741 46.1518 23.6422 46.1765C23.6072 46.2026 23.5722 46.2287 23.5372 46.2541L23.5334 46.2526ZM31.924 36.6759C31.8791 36.8461 31.832 37.014 31.7856 37.1812C31.5948 37.8605 31.3888 38.5181 31.1707 39.1436L31.1692 39.1473C29.3851 44.244 26.8409 47.1662 24.1879 47.1662C24.0329 47.1662 23.8778 47.1558 23.722 47.1364C23.7645 47.1088 23.8063 47.0797 23.8489 47.0505C23.8687 47.0371 23.8884 47.0244 23.9074 47.011C23.9781 46.9617 24.0481 46.9102 24.1188 46.858C24.1317 46.8483 24.1446 46.8378 24.1575 46.8281C24.2145 46.7841 24.2716 46.74 24.3286 46.6937C24.3521 46.6743 24.3757 46.6542 24.3993 46.6348C24.4449 46.5967 24.4912 46.5579 24.5368 46.5176C24.5627 46.4952 24.5885 46.4721 24.6144 46.4489C24.6577 46.4101 24.701 46.3705 24.7444 46.3302C24.7702 46.3056 24.7968 46.281 24.8227 46.2563C24.866 46.2153 24.9093 46.1727 24.9519 46.1302C24.977 46.1056 25.0013 46.0809 25.0264 46.0555C25.0728 46.0085 25.1184 45.9608 25.164 45.9115C25.1853 45.8891 25.2058 45.8674 25.2271 45.8451C25.2879 45.7801 25.3479 45.7129 25.408 45.645C25.4141 45.6383 25.4201 45.6323 25.4255 45.6256C25.4924 45.5495 25.5585 45.4718 25.6239 45.392C25.6398 45.3726 25.6558 45.3524 25.6725 45.3323C25.7212 45.2725 25.7698 45.2121 25.8185 45.1501C25.8405 45.1225 25.8618 45.0934 25.8838 45.065C25.9264 45.0098 25.969 44.9546 26.0108 44.8978C26.0343 44.8665 26.0571 44.8344 26.0807 44.803C26.121 44.7471 26.1621 44.6911 26.2023 44.6343C26.2251 44.6015 26.2487 44.5687 26.2715 44.5358C26.3126 44.4761 26.3536 44.4164 26.3947 44.3552C26.4159 44.3238 26.4372 44.2925 26.4585 44.2604C26.5041 44.191 26.5497 44.1208 26.5946 44.0499C26.6105 44.0253 26.6257 44.0014 26.6417 43.9767C26.7033 43.879 26.7641 43.7804 26.8241 43.6797C26.8264 43.6752 26.8295 43.6707 26.8317 43.667C26.8888 43.5722 26.945 43.4751 27.0013 43.3774C27.0187 43.346 27.037 43.3147 27.0545 43.2826C27.0955 43.2102 27.1358 43.1377 27.1761 43.0639C27.1966 43.0258 27.2179 42.987 27.2384 42.9489C27.2757 42.8802 27.3129 42.8108 27.3494 42.7406C27.3707 42.6996 27.392 42.6585 27.4133 42.6167C27.449 42.5466 27.4855 42.4757 27.5204 42.4048C27.541 42.363 27.5622 42.3219 27.5828 42.2794C27.62 42.204 27.6565 42.1271 27.693 42.0509C27.7112 42.0121 27.7302 41.9741 27.7485 41.9352C27.7926 41.8412 27.8367 41.7457 27.88 41.6501C27.8899 41.6277 27.9005 41.6061 27.9104 41.5829C27.9644 41.4635 28.0176 41.3426 28.07 41.2202C28.083 41.1911 28.0951 41.1612 28.1073 41.1313C28.1468 41.038 28.1863 40.9447 28.2251 40.8507C28.2433 40.8059 28.2616 40.7611 28.2798 40.7156C28.3125 40.6342 28.3452 40.5529 28.3779 40.4707C28.3977 40.4207 28.4167 40.3707 28.4364 40.3207C28.4676 40.2408 28.498 40.161 28.5284 40.0804C28.5482 40.0289 28.5672 39.9766 28.5862 39.9251C28.6166 39.843 28.647 39.7594 28.6766 39.6758C28.6949 39.625 28.7131 39.575 28.7314 39.5243C28.764 39.4332 28.7952 39.3407 28.8271 39.2481C28.8423 39.2041 28.8575 39.1608 28.8727 39.1167C28.8765 39.1063 28.8796 39.0966 28.8834 39.0861H28.8857L29.0103 38.7017C29.2718 37.8926 29.5136 37.0372 29.7302 36.1534H29.7325L29.8343 35.7182C29.8625 35.5973 29.8906 35.4756 29.918 35.3532C29.9271 35.3114 29.9362 35.2689 29.9453 35.2271C29.9628 35.1465 29.981 35.0658 29.9985 34.9845C30.0092 34.9337 30.0198 34.8822 30.0305 34.8315C30.0457 34.7583 30.0609 34.6859 30.0761 34.612C30.0875 34.5568 30.0981 34.5015 30.1095 34.4456C30.1232 34.3761 30.1376 34.306 30.1513 34.2366C30.1627 34.1791 30.1741 34.1209 30.1848 34.0626C30.1977 33.9947 30.2114 33.926 30.2235 33.8574C30.2349 33.7984 30.2456 33.7387 30.2562 33.6797C30.2684 33.6118 30.2813 33.5439 30.2935 33.4752C30.3041 33.4155 30.3148 33.355 30.3254 33.2953C30.3376 33.2266 30.349 33.1587 30.3611 33.09C30.371 33.0303 30.3809 32.9714 30.3915 32.9116C30.3976 32.8743 30.4045 32.8377 30.4105 32.8004C30.4425 32.7803 30.4744 32.7601 30.5063 32.74C30.6659 32.6407 30.8248 32.5414 30.9829 32.4414C31.0247 32.4153 31.0665 32.3891 31.1076 32.3623C31.2999 32.2399 31.4915 32.1159 31.6815 31.9913C31.7256 31.9629 31.7689 31.9338 31.8123 31.9055C31.9711 31.801 32.1292 31.6957 32.2858 31.5905C32.3292 31.5613 32.3725 31.5322 32.4158 31.5031C32.6058 31.3747 32.7936 31.2464 32.9806 31.1165C32.9882 31.1112 32.9958 31.106 33.0034 31.1008C32.9776 31.2971 32.9517 31.4927 32.9236 31.6867C32.919 31.7166 32.9152 31.7465 32.9114 31.7763C32.8757 32.0219 32.8385 32.2652 32.7997 32.5078C32.7868 32.5862 32.7738 32.6638 32.7609 32.7415C32.7336 32.9064 32.7062 33.0714 32.6773 33.2348C32.6613 33.3267 32.6446 33.417 32.6279 33.508C32.6005 33.6573 32.5724 33.8066 32.5443 33.9552C32.526 34.0485 32.5078 34.1418 32.4895 34.2351C32.4599 34.3821 32.4303 34.5284 32.3991 34.6732C32.3801 34.7628 32.3618 34.8516 32.3421 34.9404C32.3079 35.0964 32.2729 35.251 32.2372 35.4055C32.2197 35.4801 32.203 35.5562 32.1855 35.6301C32.1315 35.8571 32.0768 36.0825 32.0205 36.3057C31.9886 36.4296 31.9567 36.5535 31.924 36.6759ZM42.2195 36.9439C40.9325 39.1339 37.2679 39.8602 32.127 38.9577C32.133 38.9383 32.1391 38.9189 32.146 38.8995C32.2037 38.7241 32.2615 38.5472 32.317 38.3673C32.317 38.3666 32.317 38.3651 32.3178 38.3643C32.374 38.1837 32.4287 38.0008 32.4827 37.8172C32.4926 37.7836 32.5025 37.7508 32.5124 37.7172C32.564 37.5395 32.615 37.3596 32.6644 37.179C32.6735 37.1447 32.6834 37.1103 32.6925 37.076C32.7085 37.0163 32.7252 36.9566 32.7412 36.8961C34.5382 37.2603 36.1907 37.4417 37.6654 37.4417C39.581 37.4417 41.1925 37.1349 42.4262 36.5296C42.3662 36.6722 42.2978 36.811 42.2202 36.9431L42.2195 36.9439ZM42.7029 35.404C40.7919 36.7371 37.3492 36.9782 32.9464 36.0885C32.9593 36.0355 32.9715 35.9817 32.9836 35.9287C32.9958 35.8787 33.008 35.8294 33.0201 35.7794C33.0331 35.7234 33.0452 35.6667 33.0581 35.61C33.0878 35.4824 33.1167 35.3547 33.1448 35.2263C33.1585 35.1636 33.1729 35.1017 33.1866 35.039C33.1972 34.989 33.2079 34.9375 33.2185 34.8867C33.2451 34.762 33.271 34.6366 33.2961 34.5112C33.3113 34.4359 33.3272 34.3605 33.3424 34.2843C33.3508 34.241 33.3592 34.197 33.3675 34.1537C33.3918 34.0305 33.4146 33.9059 33.4375 33.782C33.4542 33.6939 33.4709 33.6066 33.4869 33.5177C33.4929 33.4819 33.4998 33.4461 33.5059 33.4103C33.5279 33.2864 33.5484 33.1617 33.5697 33.037C33.5864 32.9378 33.6039 32.8392 33.6199 32.7392C33.6245 32.7116 33.629 32.6847 33.6336 32.6571C33.6541 32.5295 33.6731 32.4011 33.6929 32.2727C33.7088 32.1689 33.7248 32.0659 33.74 31.9622C33.743 31.9398 33.7468 31.9181 33.7499 31.8957C33.756 31.8517 33.762 31.8077 33.7681 31.7636C33.7818 31.6651 33.7955 31.5666 33.8084 31.468C33.8206 31.3792 33.8335 31.2919 33.8449 31.2031C33.8487 31.1762 33.8517 31.1493 33.8555 31.1224C33.8677 31.0306 33.8783 30.9373 33.8897 30.8455C33.9065 30.7089 33.924 30.5731 33.9399 30.4357C33.9696 30.4141 33.9992 30.3924 34.0289 30.3708C34.0866 30.3282 34.1444 30.2864 34.2022 30.2439C34.2561 30.2043 34.3101 30.164 34.3641 30.1245C34.4165 30.0857 34.469 30.0468 34.5207 30.008C34.5344 29.9983 34.548 29.9879 34.561 29.9782C34.6058 29.9446 34.6507 29.911 34.6947 29.8774C34.748 29.8371 34.8019 29.7968 34.8551 29.7565C34.9114 29.7139 34.9669 29.6714 35.0224 29.6288C35.0596 29.6005 35.0976 29.5714 35.1349 29.543C35.141 29.5385 35.147 29.5333 35.1531 29.5288C35.1607 29.5228 35.1691 29.5169 35.1767 29.5102C35.2337 29.4661 35.2899 29.4221 35.347 29.378C35.3964 29.3392 35.4458 29.3012 35.4952 29.2623C35.553 29.2176 35.61 29.172 35.667 29.1272C35.6723 29.1228 35.6784 29.1183 35.6837 29.1138C35.7012 29.0996 35.7194 29.0854 35.7369 29.0713C35.7612 29.0518 35.7856 29.0324 35.8099 29.013C35.8677 28.9668 35.9254 28.9205 35.9824 28.8749C36.0288 28.8376 36.0752 28.8003 36.1208 28.763C36.1649 28.7271 36.209 28.6906 36.2538 28.6547C36.2766 28.6361 36.2994 28.6174 36.323 28.5988C36.3587 28.5697 36.3937 28.5405 36.4286 28.5122C36.4872 28.4637 36.545 28.4159 36.6035 28.3674C36.6468 28.3315 36.6901 28.2957 36.7327 28.2599C36.7624 28.2353 36.7912 28.2106 36.8209 28.186C36.8422 28.1681 36.8627 28.1509 36.8832 28.133C36.8916 28.1263 36.8992 28.1196 36.9068 28.1128C36.9486 28.077 36.9904 28.0419 37.0322 28.0061C37.0907 27.9561 37.1485 27.9068 37.2063 27.8568C37.2473 27.8217 37.2884 27.7866 37.3287 27.7516C37.3446 27.7381 37.3598 27.7247 37.3758 27.7105C37.3872 27.7001 37.3994 27.6904 37.4108 27.6799C37.4427 27.6523 37.4739 27.6247 37.5058 27.5971C37.5438 27.5635 37.5826 27.5299 37.6198 27.497C37.6806 27.4433 37.7399 27.3903 37.8 27.3365C37.8357 27.3045 37.8722 27.2724 37.9071 27.2403C37.9071 27.2403 37.9087 27.2395 37.9087 27.2388C37.9102 27.2373 37.9125 27.235 37.9147 27.2335C37.974 27.1798 38.0333 27.1261 38.0919 27.0731C38.1245 27.0432 38.158 27.0133 38.1899 26.9835C38.2568 26.9223 38.3222 26.8618 38.3883 26.8006L38.3959 26.7939C38.4058 26.7842 38.4164 26.7752 38.4271 26.7655C41.4137 30.0655 42.9219 33.1132 42.7014 35.4047L42.7029 35.404ZM43.8196 34.2224C43.7421 34.3545 43.6539 34.4814 43.5589 34.6031C43.4106 32.2122 41.8424 29.2795 39.0382 26.1863C39.0588 26.1669 39.0785 26.1467 39.0991 26.1273C39.1553 26.0721 39.2123 26.0176 39.2678 25.9624C39.302 25.9288 39.3362 25.8952 39.3704 25.8609C39.4229 25.8093 39.4746 25.7571 39.5263 25.7048C39.5605 25.6705 39.5939 25.6369 39.6274 25.6026C39.6806 25.5481 39.7338 25.4944 39.787 25.4399C39.8174 25.4085 39.8478 25.3779 39.8775 25.3466C39.9459 25.2757 40.0143 25.2047 40.0819 25.1338C40.0949 25.1196 40.1085 25.1062 40.1222 25.092C40.2013 25.0092 40.2788 24.9256 40.3563 24.8427C40.3852 24.8114 40.4141 24.78 40.443 24.7494C40.4787 24.7106 40.5152 24.6718 40.5509 24.633C43.9161 28.5525 45.108 32.0323 43.8211 34.2224H43.8196Z" fill="white"/>
<path d="M65.4377 25.6226H59.9497L67.2577 16.3546V16.0466L59.9497 6.86256H65.4377L70.7017 13.5546H71.0097L76.0777 6.86256H81.5657L74.2857 16.1306V16.4386L81.5657 25.6226H76.0777L70.8417 18.8466H70.5337L65.4377 25.6226Z" fill="white"/>
<path d="M87.2978 25.6226H83.0978V6.86256H92.8978C97.2378 6.86256 100.038 9.32656 100.038 13.6386C100.038 17.9506 97.2378 20.4426 92.8978 20.4426H87.2978V25.6226ZM92.4498 10.6426H87.2978V16.6626H92.4498C94.7738 16.6626 95.8658 15.9906 95.8658 13.6386C95.8658 11.3426 94.7738 10.6426 92.4498 10.6426Z" fill="white"/>
<path d="M106.288 25.6226H102.088V6.86256H112.448C117.068 6.86256 119.7 8.90656 119.7 12.4906C119.7 15.5426 117.936 17.3626 114.408 17.6986V17.9226C116.088 18.3706 116.732 19.2666 117.432 20.5826L120.148 25.6226H115.276L112.7 20.7506C111.944 19.2946 111.244 18.8186 109.06 18.8186H106.288V25.6226ZM106.288 10.6426V15.6546H112.42C114.408 15.6546 115.304 15.0946 115.304 13.1346C115.304 11.2866 114.408 10.6426 112.42 10.6426H106.288Z" fill="white"/>
<path d="M130.878 25.4575H127.854V6.69753H131.102L139.502 17.6735L141.938 21.1735H142.162L142.022 17.7855V6.69753H145.046V25.4575H141.798L133.342 14.5095L130.99 11.2055H130.766L130.878 14.4535V25.4575Z" fill="white"/>
<path d="M155.122 25.7375C150.558 25.7375 147.562 23.1615 147.562 18.5135C147.562 14.1735 150.53 11.2615 155.066 11.2615C159.378 11.2615 162.318 13.6415 162.318 17.8695C162.318 18.3735 162.29 18.7655 162.206 19.1855H150.39C150.502 21.8735 151.818 23.3015 155.038 23.3015C157.95 23.3015 159.154 22.3495 159.154 20.6975V20.4735H162.178V20.7255C162.178 23.6935 159.266 25.7375 155.122 25.7375ZM155.01 13.6415C151.93 13.6415 150.586 15.0135 150.418 17.5055H159.462V17.4495C159.462 14.8735 157.978 13.6415 155.01 13.6415Z" fill="white"/>
<path d="M173.991 25.4575H170.799C167.803 25.4575 165.955 24.1415 165.955 20.7535V14.0615H163.603V11.5415H165.955V8.48953H168.951V11.5415H173.991V14.0615H168.951V20.5855C168.951 22.2935 169.735 22.7415 171.471 22.7415H173.991V25.4575Z" fill="white"/>
<path d="M182.827 25.4575H179.075L174.903 11.5415H178.039L180.363 19.4375L181.007 23.0215H181.231L182.267 19.1575L185.179 11.5415H189.043L191.983 19.1575L193.019 23.0215H193.243L193.887 19.4375L196.211 11.5415H199.291L195.063 25.4575H191.311L188.259 17.4495L187.195 14.0335H186.971L185.907 17.4495L182.827 25.4575Z" fill="white"/>
<path d="M208.219 25.7375C203.599 25.7375 200.491 22.7975 200.491 18.5135C200.491 14.1735 203.599 11.2615 208.219 11.2615C212.867 11.2615 215.975 14.1735 215.975 18.5135C215.975 22.7975 212.867 25.7375 208.219 25.7375ZM208.219 23.0495C211.607 23.0495 213.007 21.4535 213.007 18.5135C213.007 15.5455 211.607 13.9215 208.219 13.9215C204.859 13.9215 203.459 15.5455 203.459 18.5135C203.459 21.4535 204.859 23.0495 208.219 23.0495Z" fill="white"/>
<path d="M221.474 25.4575H218.45V11.5415H221.222V15.2935H221.418C221.838 13.0535 223.35 11.2615 226.206 11.2615C229.37 11.2615 230.742 13.5295 230.742 16.1615V17.9815H227.746V16.7495C227.746 14.7615 226.906 13.8375 224.834 13.8375C222.454 13.8375 221.474 15.1535 221.474 17.6455V25.4575Z" fill="white"/>
<path d="M235.945 25.4575H232.921V6.69753H235.945V17.0575H239.921L244.093 11.5415H247.621L242.385 18.2335L247.593 25.4575H244.037L239.921 19.7735H235.945V25.4575Z" fill="white"/>
<path d="M64.6021 41.5425H60.7896V33.1675H64.6021C67.2021 33.1675 68.8396 34.7675 68.8396 37.355C68.8396 39.9425 67.2021 41.5425 64.6021 41.5425ZM64.6021 34.38H62.1271V40.33H64.6021C66.5396 40.33 67.4146 39.505 67.4146 37.355C67.4146 35.205 66.5396 34.38 64.6021 34.38Z" fill="white"/>
<path d="M77.0454 41.5425H70.3454V33.1675H77.0454V34.38H71.6954V36.73H76.8579V37.93H71.6954V40.33H77.0454V41.5425Z" fill="white"/>
<path d="M83.3969 41.5425H81.4844L77.9094 33.1675H79.5094L82.4094 40.18H82.5094L85.3844 33.1675H86.9719L83.3969 41.5425Z" fill="white"/>
<path d="M94.7446 41.5425H88.0446V33.1675H94.7446V34.38H89.3946V36.73H94.5571V37.93H89.3946V40.33H94.7446V41.5425Z" fill="white"/>
<path d="M102.809 41.5425H96.2961V33.1675H97.6461V40.33H102.809V41.5425Z" fill="white"/>
<path d="M108.294 41.6675C105.669 41.6675 103.931 39.9675 103.931 37.355C103.931 34.7425 105.669 33.0425 108.294 33.0425C110.944 33.0425 112.669 34.7425 112.669 37.355C112.669 39.9675 110.944 41.6675 108.294 41.6675ZM108.294 40.3675C110.281 40.3675 111.244 39.4425 111.244 37.355C111.244 35.2675 110.281 34.33 108.294 34.33C106.306 34.33 105.356 35.2675 105.356 37.355C105.356 39.4425 106.306 40.3675 108.294 40.3675Z" fill="white"/>
<path d="M115.516 41.5425H114.166V33.1675H118.266C120.129 33.1675 121.404 34.23 121.404 36.0925C121.404 37.9425 120.129 39.0175 118.266 39.0175H115.516V41.5425ZM118.141 34.38H115.516V37.805H118.141C119.404 37.805 120.054 37.33 120.054 36.0925C120.054 34.855 119.404 34.38 118.141 34.38Z" fill="white"/>
<path d="M129.411 41.5425H122.711V33.1675H129.411V34.38H124.061V36.73H129.223V37.93H124.061V40.33H129.411V41.5425Z" fill="white"/>
<path d="M132.312 41.5425H130.962V33.1675H135.312C137.212 33.1675 138.387 34.0675 138.387 35.63C138.387 37.0175 137.475 37.8675 135.9 37.955V38.0425C136.55 38.2175 136.85 38.5925 137.15 39.1175L138.55 41.5425H137L135.662 39.23C135.287 38.5675 134.9 38.2925 133.85 38.2925H132.312V41.5425ZM132.312 34.38V37.255H135.3C136.425 37.255 136.987 36.8675 136.987 35.8175C136.987 34.7925 136.425 34.38 135.3 34.38H132.312Z" fill="white"/>
<path d="M146.384 41.5425H142.572V33.1675H146.384C148.984 33.1675 150.622 34.7675 150.622 37.355C150.622 39.9425 148.984 41.5425 146.384 41.5425ZM146.384 34.38H143.909V40.33H146.384C148.322 40.33 149.197 39.505 149.197 37.355C149.197 35.205 148.322 34.38 146.384 34.38Z" fill="white"/>
<path d="M156.24 41.6675C153.615 41.6675 151.878 39.9675 151.878 37.355C151.878 34.7425 153.615 33.0425 156.24 33.0425C158.89 33.0425 160.615 34.7425 160.615 37.355C160.615 39.9675 158.89 41.6675 156.24 41.6675ZM156.24 40.3675C158.228 40.3675 159.19 39.4425 159.19 37.355C159.19 35.2675 158.228 34.33 156.24 34.33C154.253 34.33 153.303 35.2675 153.303 37.355C153.303 39.4425 154.253 40.3675 156.24 40.3675Z" fill="white"/>
<path d="M166.188 41.6675C163.587 41.6675 161.863 39.9675 161.863 37.355C161.863 34.7425 163.587 33.0425 166.188 33.0425C168.55 33.0425 170.2 34.2925 170.2 36.2925V36.4675H168.713V36.2925C168.713 35.0175 167.9 34.33 166.2 34.33C164.237 34.33 163.287 35.2675 163.287 37.355C163.287 39.4425 164.237 40.3675 166.2 40.3675C167.9 40.3675 168.713 39.6925 168.713 38.405V38.2425H170.2V38.405C170.2 40.4175 168.563 41.6675 166.188 41.6675Z" fill="white"/>
<path d="M175.57 41.6675C173.07 41.6675 171.645 40.3425 171.645 38.0675V33.1675H172.982V37.98C172.982 39.6675 173.732 40.3675 175.57 40.3675C177.407 40.3675 178.157 39.6675 178.157 37.98V33.1675H179.507V38.0675C179.507 40.3425 178.082 41.6675 175.57 41.6675Z" fill="white"/>
<path d="M182.553 41.5425H181.203V33.1675H183.041L185.453 38.0175L186.216 39.755H186.316L187.053 38.0175L189.441 33.1675H191.278V41.5425H189.928V36.405L189.978 35.1925H189.878L189.366 36.405L187.053 41.0425H185.428L183.116 36.405L182.603 35.1925H182.503L182.553 36.405V41.5425Z" fill="white"/>
<path d="M199.731 41.5425H193.031V33.1675H199.731V34.38H194.381V36.73H199.544V37.93H194.381V40.33H199.731V41.5425Z" fill="white"/>
<path d="M202.633 41.5425H201.283V33.1675H202.733L206.483 38.0675L207.57 39.63H207.67L207.608 38.1175V33.1675H208.958V41.5425H207.508L203.733 36.655L202.683 35.18H202.583L202.633 36.63V41.5425Z" fill="white"/>
<path d="M214.869 41.5425H213.531V34.38H210.231V33.1675H218.156V34.38H214.869V41.5425Z" fill="white"/>
<path d="M220.321 41.5425H218.821L222.559 33.1675H224.458L228.196 41.5425H226.671L225.708 39.3675H221.283L220.321 41.5425ZM222.958 35.605L221.821 38.155H225.171L224.033 35.605L223.546 34.4175H223.446L222.958 35.605Z" fill="white"/>
<path d="M233.483 41.5425H232.146V34.38H228.846V33.1675H236.771V34.38H233.483V41.5425Z" fill="white"/>
<path d="M239.411 41.5425H238.061V33.1675H239.411V41.5425Z" fill="white"/>
<path d="M245.273 41.6675C242.648 41.6675 240.911 39.9675 240.911 37.355C240.911 34.7425 242.648 33.0425 245.273 33.0425C247.923 33.0425 249.648 34.7425 249.648 37.355C249.648 39.9675 247.923 41.6675 245.273 41.6675ZM245.273 40.3675C247.261 40.3675 248.223 39.4425 248.223 37.355C248.223 35.2675 247.261 34.33 245.273 34.33C243.286 34.33 242.336 35.2675 242.336 37.355C242.336 39.4425 243.286 40.3675 245.273 40.3675Z" fill="white"/>
<path d="M252.496 41.5425H251.146V33.1675H252.596L256.346 38.0675L257.433 39.63H257.533L257.471 38.1175V33.1675H258.821V41.5425H257.371L253.596 36.655L252.546 35.18H252.446L252.496 36.63V41.5425Z" fill="white"/>
</svg>
